<svg version="1.1" id="Layer_1" xmlns="http://www.w3.org/2000/svg" x="0" y="0" viewBox="0 0 305 305" xml:space="preserve"><style>.st1{fill:#585858}</style><g id="XMLID_228_" opacity=".9"><path id="XMLID_229_" class="st1" d="M40.7 112.1C15 156.9 31.3 224.8 59.9 265.9c14.2 20.6 28.6 39.1 48.4 39.1h1.1c9.3-.4 16-3.2 22.5-6 7.3-3.1 14.8-6.3 26.6-6.3 11.2 0 18.4 3.1 25.3 6.1 6.8 3 13.9 6 24.3 5.8 22.2-.4 35.9-20.4 47.9-37.9 12.6-18.4 18.9-36.2 21-43l.1-.3c.4-1.2-.2-2.5-1.3-3.1 0 0-.1-.1-.2-.1-3.9-1.6-38.3-16.8-38.6-58.4-.3-33.7 25.8-51.6 31-54.8l.2-.2c.6-.4 1-.9 1.1-1.6.1-.7 0-1.3-.4-1.9-18-26.4-45.6-30.3-56.7-30.8-1.6-.2-3.3-.2-4.9-.2-13.1 0-25.6 4.9-35.6 8.9-6.9 2.7-12.9 5.1-17.1 5.1-4.6 0-10.7-2.4-17.6-5.2-9.3-3.7-19.9-7.9-31.1-7.9h-.8c-26.2.4-50.8 15.3-64.4 38.9z"/><path id="XMLID_230_" class="st1" d="M212.1 0c-15.8.6-34.7 10.3-46 23.6-9.6 11.1-19 29.7-16.5 48.4.2 1.2 1.1 2.1 2.3 2.2 1.1.1 2.1.1 3.2.1 15.4 0 32-8.5 43.4-22.3 12-14.5 18-33.1 16.2-49.8-.2-1.3-1.3-2.2-2.6-2.2z"/></g></svg>