<svg version="1.1" id="Capa_1" xmlns="http://www.w3.org/2000/svg" x="0" y="0" viewBox="0 0 553 553" xml:space="preserve"><style>.st0{opacity:.9;fill:#585858;enable-background:new}</style><path class="st0" d="M80.9 254.5c-7.8-.2-13.4-7.8-11.2-15.3 16.5-57 127.3-68.8 204.9-69.4h3.8c76.3.5 185 12 204 66.7.2.5.3 1 .4 1.6 3 11.7-7.6 22.4-19.4 20.7-23.8-3.6-103.5-10.9-152.2-15.3-25.7-2.3-51.5-2.4-77.2-.5L80.9 254.5z"/><path class="st0" d="M379 161c-1.1-.2-2.1-.3-3.2-.5-.4-.1-.8-.1-1.1-.2-23.5-65.9-61.6-153-98.4-153-36.6 0-73.7 87-96.6 152.8-.4 0-.7.1-1.1.2-1 .1-2.1.3-3.2.5-66 9.9-124.8 32.7-124.8 81.4l9.8 57.3c52.3 212.9 78.6 246.9 180.4 249 3.8.1 7.8.1 11.8.1h48c4 0 8 0 11.8-.1 101.6-2.2 128-36.2 180.3-249l9.8-57.3c-.1-48.4-58-71.1-123.5-81.2zm-100.5-7.2h-4.2c-12 .1-24.9.4-38 1.1-10.6.6-21.4 1.3-32.2 2.4 18.6-55.5 42-125.2 72.2-125.2 29.9 0 54.5 70 73.3 125.3-24.4-2.5-49-3.4-71.1-3.6z"/><path class="st0" d="M385.2 293.5c-2.6-.5-5.2-1-7.7-1.4-3.9-.7-7.8-1.3-11.8-1.8-.5-.1-1-.2-1.6-.2-.6-.1-4.2-.2-4.8-.3-20.9-78.7-49-188.9-83.1-188.9-34.1 0-60.6 109.2-81.2 187.8-.8.1-5.7 1.2-6.5 1.3-.3 0-.6.1-.8.1-4.1.6-8.4 1.2-12.5 1.9-2.1.4-4.1.7-6.2 1.1 25-92.6 66.3-218.4 107.1-218.4 41 0 83.5 126 109.1 218.8z"/></svg>