<svg xmlns="http://www.w3.org/2000/svg" viewBox="0 0 609.2 404.4"><style>.st3{fill:#33abfd}.st4{fill:#434345}.st5{fill:#ffebcc}.st7{fill:#75d6fe}.st8{fill:#73f9df}</style><g id="Layer_2"><path class="st3" d="M145.3 329.6c1.9 1.9 2.8 5.6 2.1 8.2l-7.6 26.8H166l13-8.9c2.2-1.5 5.9-1.5 8.1 0l3.6 2.5-1.8 6.4h72.9l32.5-22.3c6-4.1 15.8-4.1 21.8 0l32.5 22.3h72.8l-9.8-34.5 16.5-11.3c1.4-1 3.7-1 5.2 0l26.5 18.1c1.4 1 2.2.4 1.7-1.2l-8-28.3c-.5-1.7.1-4 1.3-5.2l20.6-20.9c1.2-1.2.8-2.4-.9-2.5l-27.2-2.5c-1.7-.2-3.7-1.6-4.4-3.2L432 247.8c-.1-.3-.2-.5-.4-.6l62.7-63.8c5.1-5.2 3.4-10-3.9-10.6L375.3 162c-7.3-.7-15.5-6.7-18.4-13.4L310.5 41.8c-2.9-6.7-7.6-6.7-10.5 0l-46.3 106.8c-2.9 6.7-11.2 12.7-18.4 13.4L120 172.7c-7.2.7-9 5.5-3.9 10.7l63.5 64.5-15.6 36c-1.1 2.5-4.1 4.7-6.8 5l-42.7 4c-2.7.3-3.3 2-1.4 4l32.2 32.7zm262-57.6l21.1-21.5-9.8 22.5c-.7 1.6-2.6 3-4.4 3.2l-10.6 1c1.1-2 2.3-3.8 3.7-5.2z" opacity=".09"/><path class="st4" d="M557.5 366.7H51.7c-.9 0-1.6-.7-1.6-1.6s.7-1.6 1.6-1.6h505.8c.9 0 1.6.7 1.6 1.6s-.7 1.6-1.6 1.6z"/><path class="st5" d="M155.8 280.9V253.7H219v27.2l-31.1 28.7z"/><path class="st4" d="M187.9 311.2c-.4 0-.8-.1-1.1-.4l-32.1-28.7c-.3-.3-.5-.7-.5-1.2v-27.2c0-.9.7-1.6 1.6-1.6H219c.9 0 1.6.7 1.6 1.6v27.2c0 .5-.2.9-.5 1.2l-31 28.7c-.4.3-.8.4-1.2.4zm-30.5-31l30.5 27.3 29.4-27.2v-24.9h-59.9v24.8z"/><path d="M234.9 126.1c-11.3-13.7-28.4-22.4-47.6-22.4s-36.2 8.7-47.6 22.4c-8.8 10.7-14.1 24.3-14.1 39.2v26.1c0 3.9 3.2 7.1 7.1 7.1h.4v-13.4c7.5-9.6 12-12.2 12-25.4 0-1.3-.1-2.5-.1-3.8 9.9-12.4 25.2-20.3 42.2-20.3s32.3 7.9 42.2 20.3c-.1 1.2-.1 2.5-.1 3.8 0 13.1 4.5 15.8 12 25.4v13.4h.4c3.9 0 7.1-3.2 7.1-7.1v-26.1c.2-14.8-5.1-28.5-13.9-39.2z" fill="#757679"/><path class="st4" d="M241.9 200.1h-.4c-.9 0-1.6-.7-1.6-1.6v-12.8c-1.2-1.5-2.2-2.7-3.2-4-5.5-6.6-8.8-10.5-8.8-22 0-1 0-2 .1-3.2-10-12.2-24.8-19.2-40.6-19.2s-30.6 7-40.6 19.2c.1 1.2.1 2.2.1 3.2 0 11.5-3.3 15.4-8.8 22-1 1.2-2.1 2.5-3.2 4v12.8c0 .9-.7 1.6-1.6 1.6h-.4c-4.8 0-8.7-3.9-8.7-8.7v-26c0-14.7 5.1-29 14.5-40.3 12.1-14.6 29.9-23 48.8-23s36.7 8.4 48.8 23c9.3 11.3 14.5 25.6 14.5 40.3v26c-.2 4.8-4.1 8.7-8.9 8.7zm-54.5-94.8c-18 0-34.8 8-46.3 21.8-8.9 10.7-13.7 24.3-13.7 38.2v26c0 2.6 1.8 4.8 4.3 5.4v-11.6c0-.4.1-.7.3-1 1.3-1.7 2.6-3.2 3.7-4.5 5.2-6.2 8-9.6 8-19.9 0-1.1 0-2.3-.1-3.7 0-.4.1-.8.4-1.1 10.7-13.3 26.5-20.9 43.5-20.9s32.9 7.6 43.5 20.9c.3.3.4.7.4 1.1-.1 1.4-.1 2.6-.1 3.7 0 10.3 2.9 13.7 8 19.9 1.1 1.3 2.3 2.8 3.7 4.5.2.3.3.6.3 1v11.6c2.4-.6 4.3-2.7 4.3-5.4v-26c0-13.9-4.9-27.5-13.7-38.2-11.7-13.8-28.6-21.8-46.5-21.8z"/><path class="st5" d="M133.2 198.5v24.1c0 29.9 24.2 54.1 54.1 54.1s54.1-24.2 54.1-54.1v-37.5c-7.5-9.6-12-12.2-12-25.4 0-1.3.1-2.5.1-3.8-9.9-12.4-25.2-20.3-42.2-20.3s-32.3 7.9-42.2 20.3c.1 1.2.1 2.5.1 3.8 0 13.1-4.5 15.8-12 25.4v13.4z"/><path class="st4" d="M187.4 278.3c-30.7 0-55.8-25-55.8-55.8v-37.4c0-.4.1-.7.3-1 1.3-1.7 2.6-3.2 3.7-4.5 5.2-6.2 8-9.6 8-19.9 0-1.1 0-2.3-.1-3.7 0-.4.1-.8.4-1.1 10.7-13.3 26.5-20.9 43.5-20.9s32.9 7.6 43.5 20.9c.3.3.4.7.4 1.1-.1 1.4-.1 2.6-.1 3.7 0 10.3 2.9 13.7 8 19.9 1.1 1.3 2.3 2.8 3.7 4.5.2.3.3.6.3 1v37.4c-.1 30.8-25.1 55.8-55.8 55.8zm-52.5-92.6v36.9c0 29 23.6 52.5 52.5 52.5s52.5-23.6 52.5-52.5v-36.9c-1.2-1.5-2.2-2.7-3.2-4-5.5-6.6-8.8-10.5-8.8-22 0-1 0-2 .1-3.2-10-12.2-24.8-19.2-40.6-19.2s-30.6 7-40.6 19.2c.1 1.2.1 2.2.1 3.2 0 11.5-3.3 15.4-8.8 22-1 1.3-2.1 2.5-3.2 4z"/><path class="st5" d="M249 189.1v2.3c0 3.9-3.2 7.1-7.1 7.1h-.4v20.3c8.7 0 15.8-7.1 15.8-15.8 0-6-3.4-11.2-8.3-13.9z"/><path class="st4" d="M241.5 220.4c-.9 0-1.6-.7-1.6-1.6v-20.3c0-.9.7-1.6 1.6-1.6h.4c3 0 5.5-2.5 5.5-5.5v-2.3c0-.6.3-1.1.8-1.4s1.1-.3 1.6 0c5.6 3.1 9.1 8.9 9.1 15.3 0 9.6-7.8 17.4-17.4 17.4zm1.6-20.4v17.1c7.1-.8 12.5-6.8 12.5-14.1 0-4.2-1.9-8.2-5.1-10.9-.2 4.1-3.4 7.4-7.4 7.9z"/><g><path class="st5" d="M125.7 191.4v-2.3c-4.9 2.7-8.3 7.9-8.3 13.9 0 8.7 7.1 15.8 15.8 15.8v-20.3h-.4c-3.9 0-7.1-3.2-7.1-7.1z"/><path class="st4" d="M133.2 220.4c-9.6 0-17.4-7.8-17.4-17.4 0-6.4 3.5-12.3 9.1-15.3.5-.3 1.1-.3 1.6 0s.8.8.8 1.4v2.3c0 3 2.5 5.5 5.5 5.5h.4c.9 0 1.6.7 1.6 1.6v20.3c.1.9-.7 1.6-1.6 1.6zm-9.1-28.2c-3.2 2.7-5.1 6.6-5.1 10.9 0 7.3 5.5 13.3 12.5 14.1V200c-3.9-.5-7-3.8-7.4-7.8z"/></g><g><path class="st7" d="M169.3 241.5c5.8 1.4 11.8 2.1 18 2.1 6.2 0 12.3-.7 18-2.1"/><path class="st4" d="M187.4 245.2c-6.2 0-12.4-.7-18.4-2.1-.9-.2-1.4-1.1-1.2-1.9.2-.9 1.1-1.4 1.9-1.2 11.5 2.7 23.8 2.7 35.3 0 .9-.2 1.7.3 1.9 1.2.2.9-.3 1.7-1.2 1.9-5.9 1.4-12.1 2.1-18.3 2.1z"/></g><g><path class="st3" d="M156.3 280.9l-8.6 11.5-35 22.2c-8.4 5.3-13.5 14.6-13.5 24.6V365h177.6v-25.8c0-10-5.1-19.3-13.5-24.6l-35.1-22.2-8.6-11.5-31.6 28.7-31.7-28.7z"/><path class="st4" d="M276.8 366.7H99.1c-.9 0-1.6-.7-1.6-1.6v-25.8c0-10.6 5.3-20.3 14.3-26l34.8-22.1 8.4-11.3c.3-.4.7-.6 1.1-.6.5 0 .9.1 1.2.4l30.5 27.7 30.5-27.7c.3-.3.8-.5 1.2-.4.5 0 .9.3 1.1.6l8.4 11.3 34.8 22.1c8.9 5.7 14.3 15.4 14.3 26V365c.3.9-.5 1.7-1.3 1.7zm-176-3.3h174.4v-24.2c0-9.5-4.8-18.2-12.8-23.2l-35.1-22.2c-.2-.1-.3-.2-.4-.4l-7.6-10.1-30.3 27.5c-.6.6-1.6.6-2.2 0l-30.3-27.5-7.6 10.1c-.1.2-.3.3-.4.4l-35 22.2c-8 5.1-12.8 13.8-12.8 23.2v24.2zm46.9-71z"/><path class="st7" d="M156.3 280.9l31.6 28.7 31.6-28.7 8.6 11.5-22.9 40.2-17.3-23-17.2 23-23-40.2z"/><path class="st4" d="M205.2 334.2c-.5 0-1-.2-1.3-.6L188 312.3l-16 21.3c-.3.4-.8.7-1.4.6-.5 0-1-.3-1.3-.8l-23-40.2c-.3-.6-.3-1.3.1-1.8l8.6-11.5c.3-.4.7-.6 1.1-.6.5 0 .9.1 1.2.4l30.5 27.7 30.5-27.7c.3-.3.8-.5 1.2-.4.5 0 .9.3 1.1.6l8.6 11.5c.4.5.4 1.2.1 1.8l-23 40.2c-.3.5-.8.8-1.3.8h.2zm-55.6-41.7l21.2 37.2 14.9-19.8-29.2-26.5-6.9 9.1zm40.5 17.3l14.9 19.8 21.2-37.2-6.9-9.2-29.2 26.6z"/><g><path class="st4" d="M187.9 363.8c-.9 0-1.6-.7-1.6-1.6v-52.6c0-.9.7-1.6 1.6-1.6s1.6.7 1.6 1.6v52.6c0 .9-.7 1.6-1.6 1.6z"/></g><g><path class="st7" d="M228.2 349.8h28.7V365h-28.7z"/><path class="st4" d="M257 366.7h-28.7c-.9 0-1.6-.7-1.6-1.6v-15.2c0-.9.7-1.6 1.6-1.6H257c.9 0 1.6.7 1.6 1.6V365c0 .9-.7 1.7-1.6 1.7zm-27.1-3.3h25.5v-12h-25.5v12z"/></g></g><g><circle class="st4" cx="146.1" cy="345.7" r="3"/><circle class="st4" cx="146.2" cy="357.7" r="3"/><circle class="st4" cx="134.2" cy="345.7" r="3"/><circle class="st4" cx="134.2" cy="357.7" r="3"/><circle class="st4" cx="122.1" cy="345.7" r="3"/><circle class="st4" cx="122.2" cy="357.7" r="3"/><circle class="st4" cx="158.1" cy="357.7" r="3"/><circle class="st4" cx="170.2" cy="357.7" r="3"/><circle class="st4" cx="110.1" cy="345.6" r="3"/><circle class="st4" cx="110.1" cy="333.7" r="3"/><circle class="st4" cx="110.1" cy="357.7" r="3"/></g><g><path class="st8" d="M382.2 348.5c-1.8-1.3-4.9-1.3-6.7 0L341 372.1c-1.8 1.3-2.9.5-2.2-1.6l10.4-36.8c.6-2.2-.2-5.2-1.7-6.8l-26.8-27.3c-1.6-1.6-1-3.1 1.2-3.3l35.5-3.3c2.2-.2 4.8-2.1 5.7-4.1l14.3-32.9c.9-2.1 2.3-2.1 3.2 0l14.3 32.9c.9 2.1 3.4 3.9 5.7 4.1l35.5 3.3c2.2.2 2.8 1.7 1.2 3.3l-26.8 27.3c-1.6 1.6-2.4 4.7-1.7 6.8l10.4 36.8c.6 2.2-.4 2.9-2.2 1.6l-34.8-23.6z"/><path class="st4" d="M418.2 374.4c-.6 0-1.5-.2-2.5-.9l-34.5-23.6c-1.3-.9-3.6-.9-4.9 0l-34.5 23.6c-2 1.4-3.3.9-3.9.4-.6-.4-1.5-1.5-.8-3.8l10.4-36.8c.5-1.6-.2-4.1-1.3-5.2l-26.8-27.3c-1.2-1.2-1.6-2.6-1.2-3.9.4-1.2 1.7-2 3.4-2.2l35.5-3.3c1.6-.2 3.7-1.6 4.3-3.1l14.3-32.9c1-2.2 2.4-2.5 3.1-2.5.8 0 2.2.3 3.1 2.5l14.3 32.9c.7 1.5 2.7 3 4.3 3.1l35.5 3.3c1.7.2 3 1 3.4 2.2.4 1.2 0 2.6-1.2 3.9L411.4 328c-1.2 1.2-1.8 3.6-1.3 5.2l10.4 36.8c.7 2.3-.2 3.4-.8 3.8-.3.3-.8.6-1.5.6zm-35.1-27.2l34.1 23.4-10.2-36.5c-.8-2.7.2-6.4 2.1-8.4l26.8-27.3c.2-.2.3-.3.3-.4-.1 0-.3-.1-.5-.1l-35.5-3.3c-2.8-.3-5.9-2.5-7-5.1L379 256.7c0-.1-.1-.2-.1-.3 0 .1-.1.2-.1.3l-14.3 32.9c-1.1 2.6-4.2 4.8-7 5.1L322 298c-.2 0-.4.1-.5.1.1.1.2.3.3.4l26.8 27.3c2 2 2.9 5.7 2.2 8.4l-10.3 36.4 34.1-23.4c2.4-1.6 6.1-1.6 8.5 0z"/></g><g><path class="st8" d="M313.7 352.9c-.9-.6-2.4-.6-3.3 0l-17.1 11.7c-.9.6-1.4.3-1.1-.8l5.2-18.3c.3-1.1-.1-2.6-.9-3.4l-13.3-13.6c-.8-.8-.5-1.5.6-1.6l17.6-1.6c1.1-.1 2.4-1 2.8-2l7.1-16.3c.4-1 1.2-1 1.6 0l7.1 16.3c.4 1 1.7 1.9 2.8 2l17.6 1.6c1.1.1 1.4.8.6 1.6l-13.3 13.6c-.8.8-1.2 2.3-.9 3.4l5.2 18.3c.3 1.1-.2 1.4-1.1.8l-17.2-11.7z"/><path class="st4" d="M331.6 366.6c-.5 0-1-.1-1.7-.6l-17.1-11.7c-.4-.3-1.1-.3-1.5 0L294.2 366c-1.5 1-2.5.5-2.9.2-.4-.3-1.2-1.1-.7-2.8l5.2-18.3c.1-.5-.1-1.4-.5-1.8L282 329.7c-1.2-1.2-.9-2.3-.8-2.8.2-.4.7-1.5 2.4-1.6l17.6-1.6c.5 0 1.3-.6 1.5-1.1l7.1-16.3c.7-1.6 1.8-1.7 2.3-1.7s1.6.2 2.3 1.7l7.1 16.3c.2.5 1 1 1.5 1.1l17.6 1.6c1.7.2 2.2 1.2 2.4 1.6s.4 1.6-.8 2.8l-13.3 13.6c-.4.4-.6 1.3-.5 1.8l5.2 18.3c.5 1.7-.3 2.5-.7 2.8-.3.1-.7.4-1.3.4zm-17-15l15.1 10.3-4.5-15.9c-.5-1.6.1-3.8 1.3-5l12.4-12.6-16.3-1.5c-1.7-.2-3.5-1.5-4.2-3l-6.4-14.8-6.4 14.8c-.7 1.6-2.5 2.9-4.2 3l-16.2 1.5 12.3 12.6c1.2 1.2 1.7 3.3 1.3 5l-4.5 15.9 15.1-10.3c1.5-1 3.8-1 5.2 0z"/><g><path class="st8" d="M447.3 352.9c-.9-.6-2.4-.6-3.3 0l-17.1 11.7c-.9.6-1.4.3-1.1-.8l5.2-18.3c.3-1.1-.1-2.6-.9-3.4l-13.3-13.6c-.8-.8-.5-1.5.6-1.6l17.6-1.6c1.1-.1 2.4-1 2.8-2l7.1-16.3c.4-1 1.2-1 1.6 0l7.1 16.3c.4 1 1.7 1.9 2.8 2L474 327c1.1.1 1.4.8.6 1.6l-13.3 13.6c-.8.8-1.2 2.3-.9 3.4l5.2 18.3c.3 1.1-.2 1.4-1.1.8l-17.2-11.8z"/><path class="st4" d="M465.2 366.6c-.5 0-1-.1-1.7-.6l-17.1-11.7c-.4-.3-1.1-.3-1.5 0L427.8 366c-1.5 1-2.5.5-2.9.2-.4-.3-1.2-1.1-.7-2.8l5.2-18.3c.1-.5-.1-1.4-.5-1.8l-13.3-13.6c-1.2-1.2-.9-2.3-.8-2.8.2-.4.7-1.5 2.4-1.6l17.6-1.6c.5 0 1.3-.6 1.5-1.1l7.1-16.3c.7-1.6 1.8-1.7 2.3-1.7.5 0 1.6.2 2.3 1.7l7.1 16.3c.2.5 1 1 1.5 1.1l17.6 1.6c1.7.2 2.2 1.2 2.4 1.6s.4 1.6-.8 2.8l-13.3 13.6c-.4.4-.6 1.3-.5 1.8l5.2 18.3c.5 1.7-.3 2.5-.7 2.8-.3.1-.7.4-1.3.4zm-16.9-15l15.1 10.3-4.5-15.9c-.5-1.6.1-3.8 1.3-5l12.4-12.6-16.3-1.5c-1.7-.2-3.5-1.5-4.2-3l-6.4-14.8-6.4 14.8c-.7 1.6-2.5 2.9-4.2 3l-16.2 1.5 12.3 12.6c1.2 1.2 1.7 3.3 1.3 5l-4.5 15.9 15.1-10.3c1.5-1 3.7-1 5.2 0z"/></g></g><g><path class="st8" d="M267 354.2c-.6-.4-1.5-.4-2.1 0l-10.7 7.3c-.6.4-.9.2-.7-.5l3.2-11.4c.2-.7-.1-1.6-.5-2.1l-8.3-8.5c-.5-.5-.3-1 .4-1l11-1c.7-.1 1.5-.6 1.8-1.3l4.4-10.2c.3-.6.7-.6 1 0l4.4 10.2c.3.6 1.1 1.2 1.8 1.3l11 1c.7.1.9.5.4 1l-8.3 8.5c-.5.5-.7 1.4-.5 2.1l3.2 11.4c.2.7-.1.9-.7.5l-10.8-7.3z"/><path class="st4" d="M278.2 363.3c-.4 0-.9-.1-1.4-.5l-10.7-7.3h-.3l-10.7 7.3c-1.3.9-2.2.3-2.5.1s-1.1-.9-.7-2.4l3.2-11.4c0-.1-.1-.4-.1-.5l-8.3-8.5c-.7-.7-.9-1.6-.6-2.4.3-.8 1-1.3 2-1.4l11-1c.1 0 .4-.2.4-.3l4.4-10.2c.4-.9 1.1-1.5 2-1.5.8 0 1.6.5 2 1.5l4.4 10.2c.1.1.3.3.4.3l11 1c1 .1 1.7.6 2 1.4.3.8.1 1.7-.6 2.4l-8.3 8.5c-.1.1-.2.4-.1.5l3.2 11.4c.4 1.5-.4 2.2-.7 2.4 0 .2-.4.4-1 .4zm-10.3-10.4l8 5.5-2.4-8.3c-.3-1.2 0-2.8.9-3.7l6.8-6.9-8.9-.8c-1.3-.1-2.6-1.1-3.1-2.3l-3.4-7.9-3.4 7.9c-.5 1.2-1.8 2.1-3.1 2.2l-8.9.8 6.8 6.9c.9.9 1.3 2.5.9 3.7l-2.4 8.3 8-5.5c1.5-.7 3.1-.7 4.2.1z"/><g><path class="st8" d="M492.8 354.2c-.6-.4-1.5-.4-2.1 0l-10.7 7.3c-.6.4-.9.2-.7-.5l3.2-11.4c.2-.7-.1-1.6-.5-2.1l-8.3-8.5c-.5-.5-.3-1 .4-1l11-1c.7-.1 1.5-.6 1.8-1.3l4.4-10.2c.3-.6.7-.6 1 0l4.4 10.2c.3.6 1.1 1.2 1.8 1.3l11 1c.7.1.9.5.4 1l-8.3 8.5c-.5.5-.7 1.4-.5 2.1l3.2 11.4c.2.7-.1.9-.7.5l-10.8-7.3z"/><path class="st4" d="M503.9 363.3c-.4 0-.9-.1-1.4-.5l-10.7-7.3h-.3l-10.7 7.3c-1.3.9-2.2.3-2.5.1-.3-.2-1.1-.9-.7-2.4l3.2-11.4c0-.1-.1-.4-.1-.5l-8.3-8.5c-.7-.7-.9-1.6-.6-2.4.3-.8 1-1.3 2-1.4l11-1c.1 0 .4-.2.4-.3l4.4-10.2c.4-.9 1.1-1.5 2-1.5.9 0 1.6.5 2 1.5L498 335c.1.1.3.3.4.3l11 1c1 .1 1.7.6 2 1.4.3.8.1 1.7-.6 2.4l-8.3 8.5c-.1.1-.2.4-.1.5l3.2 11.4c.4 1.5-.4 2.2-.7 2.4 0 .2-.4.4-1 .4zm-10.2-10.4l8 5.5-2.4-8.3c-.3-1.2 0-2.8.9-3.7l6.8-6.9-8.9-.8c-1.3-.1-2.6-1.1-3.1-2.2l-3.4-7.9-3.4 7.9c-.5 1.2-1.8 2.1-3.1 2.2l-8.9.8 6.8 6.9c.9.9 1.3 2.5.9 3.7l-2.4 8.3 8-5.5c1.4-.8 3.1-.8 4.2 0z"/></g></g></g></svg>