<svg xmlns="http://www.w3.org/2000/svg" viewBox="0 0 609.2 404.4"><style>.st3{fill:#33abfd}.st4{fill:#434345}.st5{fill:#75d6fe}.st7{fill:#e4e4e5}</style><g id="Layer_2"><path class="st3" d="M58.1 362v3h460.5v-3c0-2.7-2.2-4.8-4.8-4.8h-46V163c0-6.7-5.4-12.1-12.1-12.1h-41.6l-2.6-18.1-3.6-25-1.6-11.2c-.8-5.6-5.9-9.4-11.5-8.6l-198.3 28.4c-5.6.8-9.4 5.9-8.6 11.5l3.3 23.1h-46.8c-6.7 0-12.1 5.4-12.1 12.1v136.1h-20.4c-2.7 0-4.8 2.2-4.8 4.8v9.7c0 2.7 2.2 4.8 4.8 4.8-2.7 0-4.8 2.2-4.8 4.8v9.7c0 2.7 2.2 4.8 4.8 4.8h-49c-2.7 0-4.8 2.2-4.8 4.8v9.7c0 2.7 2.2 4.8 4.8 4.8-2.7.1-4.8 2.2-4.8 4.9z" opacity=".09"/><path class="st4" d="M557.5 366.6H51.7c-.9 0-1.6-.7-1.6-1.6s.7-1.6 1.6-1.6h505.8c.9 0 1.6.7 1.6 1.6s-.7 1.6-1.6 1.6z"/><path class="st5" d="M426.5 365H179.7c-5.3 0-9.6-4.3-9.6-9.6V195.6c0-5.3 4.3-9.6 9.6-9.6h246.8c5.3 0 9.6 4.3 9.6 9.6v159.8c0 5.3-4.3 9.6-9.6 9.6z"/><path class="st4" d="M426.5 366.6H179.7c-6.2 0-11.2-5-11.2-11.2V195.6c0-6.2 5-11.2 11.2-11.2h246.8c6.2 0 11.2 5 11.2 11.2v159.8c0 6.2-5 11.2-11.2 11.2zm-246.8-179c-4.4 0-8 3.6-8 8v159.8c0 4.4 3.6 8 8 8h246.8c4.4 0 8-3.6 8-8V195.6c0-4.4-3.6-8-8-8H179.7z"/><path class="st3" d="M179.7 365c-5.3 0-9.6-4.3-9.6-9.6V195.6c0-5.3 4.3-9.6 9.6-9.6h226.2c5.3 0 9.6 4.3 9.6 9.6v159.8c0 5.3-4.3 9.6-9.6 9.6H179.7z"/><path class="st4" d="M405.9 366.6H179.7c-6.2 0-11.2-5-11.2-11.2V195.6c0-6.2 5-11.2 11.2-11.2h226.2c6.2 0 11.2 5 11.2 11.2v159.8c0 6.2-5 11.2-11.2 11.2zm-226.2-179c-4.4 0-8 3.6-8 8v159.8c0 4.4 3.6 8 8 8h226.2c4.4 0 8-3.6 8-8V195.6c0-4.4-3.6-8-8-8H179.7z"/><path class="st5" d="M363.1 307c-17.4 0-31.5-14.1-31.5-31.5s14.1-31.5 31.5-31.5h73v63h-73z"/><path class="st4" d="M436.1 308.6h-73c-18.3 0-33.1-14.9-33.1-33.1s14.9-33.1 33.1-33.1h73c.9 0 1.6.7 1.6 1.6v63c0 .9-.7 1.6-1.6 1.6zm-73-63c-16.5 0-29.9 13.4-29.9 29.9s13.4 29.9 29.9 29.9h71.4v-59.8h-71.4z"/><circle class="st4" cx="196.1" cy="250" r="3"/><circle class="st4" cx="184.1" cy="250" r="3"/><circle class="st4" cx="196.1" cy="238" r="3"/><circle class="st4" cx="184.1" cy="238" r="3"/><circle class="st4" cx="196.1" cy="226" r="3"/><circle class="st4" cx="184.1" cy="226" r="3"/><circle class="st4" cx="220.1" cy="226" r="3"/><circle class="st4" cx="232.1" cy="226" r="3"/><circle class="st4" cx="244.1" cy="214" r="3"/><circle class="st4" cx="208.1" cy="238" r="3"/><circle class="st4" cx="196.1" cy="262" r="3"/><circle class="st4" cx="184.1" cy="262" r="3"/><circle class="st4" cx="184.1" cy="274" r="3"/><circle class="st4" cx="184.1" cy="286" r="3"/><circle class="st4" cx="196.1" cy="214" r="3"/><circle class="st4" cx="220.1" cy="214" r="3"/><circle class="st4" cx="208.1" cy="226" r="3"/><circle class="st4" cx="232.1" cy="214" r="3"/><circle class="st4" cx="208.1" cy="214" r="3"/><circle class="st4" cx="184.1" cy="214" r="3"/><g><circle class="st3" cx="363.1" cy="275.5" r="18"/><path class="st4" d="M363.1 295.1c-10.8 0-19.6-8.8-19.6-19.6s8.8-19.6 19.6-19.6 19.6 8.8 19.6 19.6-8.8 19.6-19.6 19.6zm0-36c-9 0-16.4 7.3-16.4 16.4s7.3 16.4 16.4 16.4 16.4-7.3 16.4-16.4-7.4-16.4-16.4-16.4z"/></g><g><path class="st4" d="M408.8 202.9h-5c-.9 0-1.6-.7-1.6-1.6s.7-1.6 1.6-1.6h5c.9 0 1.6.7 1.6 1.6s-.7 1.6-1.6 1.6zm-13.7 0h-5c-.9 0-1.6-.7-1.6-1.6s.7-1.6 1.6-1.6h5c.9 0 1.6.7 1.6 1.6s-.7 1.6-1.6 1.6zm-13.8 0h-5c-.9 0-1.6-.7-1.6-1.6s.7-1.6 1.6-1.6h5c.9 0 1.6.7 1.6 1.6s-.7 1.6-1.6 1.6zm-13.7 0h-5c-.9 0-1.6-.7-1.6-1.6s.7-1.6 1.6-1.6h5c.9 0 1.6.7 1.6 1.6s-.7 1.6-1.6 1.6zm-13.8 0h-5c-.9 0-1.6-.7-1.6-1.6s.7-1.6 1.6-1.6h5c.9 0 1.6.7 1.6 1.6s-.7 1.6-1.6 1.6zm-13.7 0h-5c-.9 0-1.6-.7-1.6-1.6s.7-1.6 1.6-1.6h5c.9 0 1.6.7 1.6 1.6s-.7 1.6-1.6 1.6zm-13.8 0h-5c-.9 0-1.6-.7-1.6-1.6s.7-1.6 1.6-1.6h5c.9 0 1.6.7 1.6 1.6s-.7 1.6-1.6 1.6zm-13.7 0h-5c-.9 0-1.6-.7-1.6-1.6s.7-1.6 1.6-1.6h5c.9 0 1.6.7 1.6 1.6s-.7 1.6-1.6 1.6zm-13.8 0h-5c-.9 0-1.6-.7-1.6-1.6s.7-1.6 1.6-1.6h5c.9 0 1.6.7 1.6 1.6s-.7 1.6-1.6 1.6zm-13.7 0h-5c-.9 0-1.6-.7-1.6-1.6s.7-1.6 1.6-1.6h5c.9 0 1.6.7 1.6 1.6s-.7 1.6-1.6 1.6zm-13.8 0h-5c-.9 0-1.6-.7-1.6-1.6s.7-1.6 1.6-1.6h5c.9 0 1.6.7 1.6 1.6s-.7 1.6-1.6 1.6zm-13.7 0h-5c-.9 0-1.6-.7-1.6-1.6s.7-1.6 1.6-1.6h5c.9 0 1.6.7 1.6 1.6s-.7 1.6-1.6 1.6zm-13.8 0h-5c-.9 0-1.6-.7-1.6-1.6s.7-1.6 1.6-1.6h5c.9 0 1.6.7 1.6 1.6s-.7 1.6-1.6 1.6zm-13.7 0h-5c-.9 0-1.6-.7-1.6-1.6s.7-1.6 1.6-1.6h5c.9 0 1.6.7 1.6 1.6s-.7 1.6-1.6 1.6zm-13.8 0h-5c-.9 0-1.6-.7-1.6-1.6s.7-1.6 1.6-1.6h5c.9 0 1.6.7 1.6 1.6s-.7 1.6-1.6 1.6zm-13.7 0h-5c-.9 0-1.6-.7-1.6-1.6s.7-1.6 1.6-1.6h5c.9 0 1.6.7 1.6 1.6s-.7 1.6-1.6 1.6zm-13.7 0h-5c-.9 0-1.6-.7-1.6-1.6s.7-1.6 1.6-1.6h5c.9 0 1.6.7 1.6 1.6s-.8 1.6-1.6 1.6zm-13.8 0h-5c-.9 0-1.6-.7-1.6-1.6s.7-1.6 1.6-1.6h5c.9 0 1.6.7 1.6 1.6s-.7 1.6-1.6 1.6zM415.5 351.3h-2c-.9 0-1.6-.7-1.6-1.6s.7-1.6 1.6-1.6h2c.9 0 1.6.7 1.6 1.6s-.7 1.6-1.6 1.6zm-10.7 0h-5c-.9 0-1.6-.7-1.6-1.6s.7-1.6 1.6-1.6h5c.9 0 1.6.7 1.6 1.6s-.7 1.6-1.6 1.6zm-13.7 0h-5c-.9 0-1.6-.7-1.6-1.6s.7-1.6 1.6-1.6h5c.9 0 1.6.7 1.6 1.6s-.7 1.6-1.6 1.6zm-13.8 0h-5c-.9 0-1.6-.7-1.6-1.6s.7-1.6 1.6-1.6h5c.9 0 1.6.7 1.6 1.6s-.7 1.6-1.6 1.6zm-13.7 0h-5c-.9 0-1.6-.7-1.6-1.6s.7-1.6 1.6-1.6h5c.9 0 1.6.7 1.6 1.6s-.7 1.6-1.6 1.6zm-13.8 0h-5c-.9 0-1.6-.7-1.6-1.6s.7-1.6 1.6-1.6h5c.9 0 1.6.7 1.6 1.6s-.7 1.6-1.6 1.6zm-13.7 0h-5c-.9 0-1.6-.7-1.6-1.6s.7-1.6 1.6-1.6h5c.9 0 1.6.7 1.6 1.6s-.7 1.6-1.6 1.6zm-13.8 0h-5c-.9 0-1.6-.7-1.6-1.6s.7-1.6 1.6-1.6h5c.9 0 1.6.7 1.6 1.6s-.7 1.6-1.6 1.6zm-13.7 0h-5c-.9 0-1.6-.7-1.6-1.6s.7-1.6 1.6-1.6h5c.9 0 1.6.7 1.6 1.6s-.7 1.6-1.6 1.6zm-13.8 0h-5c-.9 0-1.6-.7-1.6-1.6s.7-1.6 1.6-1.6h5c.9 0 1.6.7 1.6 1.6s-.7 1.6-1.6 1.6zm-13.7 0h-5c-.9 0-1.6-.7-1.6-1.6s.7-1.6 1.6-1.6h5c.9 0 1.6.7 1.6 1.6s-.7 1.6-1.6 1.6zm-13.8 0h-5c-.9 0-1.6-.7-1.6-1.6s.7-1.6 1.6-1.6h5c.9 0 1.6.7 1.6 1.6s-.7 1.6-1.6 1.6zm-13.7 0h-5c-.9 0-1.6-.7-1.6-1.6s.7-1.6 1.6-1.6h5c.9 0 1.6.7 1.6 1.6s-.7 1.6-1.6 1.6zm-13.8 0h-5c-.9 0-1.6-.7-1.6-1.6s.7-1.6 1.6-1.6h5c.9 0 1.6.7 1.6 1.6s-.7 1.6-1.6 1.6z"/></g><g><path d="M216.8 186h176.8l-6.2-43.1c-.6-4.4-4.7-7.5-9.1-6.8L221 158.6c-4.4.6-7.5 4.7-6.8 9.1l2.6 18.3z" fill="#73f9df"/><path class="st4" d="M393.6 187.6H216.8c-.8 0-1.5-.6-1.6-1.4l-2.6-18.3c-.4-2.6.3-5.1 1.8-7.2 1.6-2.1 3.8-3.4 6.4-3.8l157.3-22.5c2.6-.4 5.1.3 7.2 1.8 2.1 1.6 3.4 3.8 3.8 6.4l6.2 43.1c.1.5-.1.9-.4 1.3s-.8.6-1.3.6zm-175.4-3.2h173.5l-5.9-41.2c-.2-1.7-1.1-3.2-2.5-4.2s-3.1-1.5-4.8-1.2l-157.3 22.5c-1.7.2-3.2 1.1-4.2 2.5s-1.5 3.1-1.2 4.8l2.4 16.8z"/></g><g><path class="st4" d="M291.1 186l100.4-14.4-2.8-19.8-173.2 24.7 1.3 9.5z"/></g><g><circle class="st7" cx="205.1" cy="346.7" r="28"/><path class="st4" d="M205.1 376.4c-16.3 0-29.6-13.3-29.6-29.6s13.3-29.6 29.6-29.6 29.6 13.3 29.6 29.6-13.3 29.6-29.6 29.6zm0-56c-14.5 0-26.4 11.8-26.4 26.4s11.8 26.4 26.4 26.4 26.4-11.8 26.4-26.4-11.8-26.4-26.4-26.4z"/></g><g><path class="st7" d="M194.3 318.9h-40.4c-2.1 0-3.8-1.7-3.8-3.8v-7.7c0-2.1 1.7-3.8 3.8-3.8h40.4c2.1 0 3.8 1.7 3.8 3.8v7.7c0 2.1-1.7 3.8-3.8 3.8z"/><path class="st4" d="M194.3 320.5h-40.4c-3 0-5.4-2.4-5.4-5.4v-7.7c0-3 2.4-5.4 5.4-5.4h40.4c3 0 5.4 2.4 5.4 5.4v7.7c0 3-2.4 5.4-5.4 5.4zm-40.4-15.3c-1.2 0-2.2 1-2.2 2.2v7.7c0 1.2 1 2.2 2.2 2.2h40.4c1.2 0 2.2-1 2.2-2.2v-7.7c0-1.2-1-2.2-2.2-2.2h-40.4z"/><path class="st7" d="M194.3 334.3h-40.4c-2.1 0-3.8-1.7-3.8-3.8v-7.7c0-2.1 1.7-3.8 3.8-3.8h40.4c2.1 0 3.8 1.7 3.8 3.8v7.7c0 2.1-1.7 3.8-3.8 3.8z"/><path class="st4" d="M194.3 335.9h-40.4c-3 0-5.4-2.4-5.4-5.4v-7.7c0-3 2.4-5.4 5.4-5.4h40.4c3 0 5.4 2.4 5.4 5.4v7.7c0 2.9-2.4 5.4-5.4 5.4zm-40.4-15.4c-1.2 0-2.2 1-2.2 2.2v7.7c0 1.2 1 2.2 2.2 2.2h40.4c1.2 0 2.2-1 2.2-2.2v-7.7c0-1.2-1-2.2-2.2-2.2h-40.4z"/><path class="st7" d="M194.3 349.6h-40.4c-2.1 0-3.8-1.7-3.8-3.8v-7.7c0-2.1 1.7-3.8 3.8-3.8h40.4c2.1 0 3.8 1.7 3.8 3.8v7.7c0 2.1-1.7 3.8-3.8 3.8z"/><path class="st4" d="M194.3 351.2h-40.4c-3 0-5.4-2.4-5.4-5.4v-7.7c0-3 2.4-5.4 5.4-5.4h40.4c3 0 5.4 2.4 5.4 5.4v7.7c0 3-2.4 5.4-5.4 5.4zm-40.4-15.3c-1.2 0-2.2 1-2.2 2.2v7.7c0 1.2 1 2.2 2.2 2.2h40.4c1.2 0 2.2-1 2.2-2.2v-7.7c0-1.2-1-2.2-2.2-2.2h-40.4z"/><path class="st7" d="M194.3 365h-40.4c-2.1 0-3.8-1.7-3.8-3.8v-7.7c0-2.1 1.7-3.8 3.8-3.8h40.4c2.1 0 3.8 1.7 3.8 3.8v7.7c0 2.1-1.7 3.8-3.8 3.8z"/><path class="st4" d="M194.3 366.6h-40.4c-3 0-5.4-2.4-5.4-5.4v-7.7c0-3 2.4-5.4 5.4-5.4h40.4c3 0 5.4 2.4 5.4 5.4v7.7c0 3-2.4 5.4-5.4 5.4zm-40.4-15.4c-1.2 0-2.2 1-2.2 2.2v7.7c0 1.2 1 2.2 2.2 2.2h40.4c1.2 0 2.2-1 2.2-2.2v-7.7c0-1.2-1-2.2-2.2-2.2h-40.4zM182.1 319.6c-.9 0-1.6-.7-1.6-1.6v-14c0-.9.7-1.6 1.6-1.6s1.6.7 1.6 1.6v14c0 .9-.7 1.6-1.6 1.6z"/><path class="st4" d="M182.1 335.6c-.9 0-1.6-.7-1.6-1.6v-14c0-.9.7-1.6 1.6-1.6s1.6.7 1.6 1.6v14c0 .9-.7 1.6-1.6 1.6z"/><path class="st4" d="M182.1 350.6c-.9 0-1.6-.7-1.6-1.6v-14c0-.9.7-1.6 1.6-1.6s1.6.7 1.6 1.6v14c0 .9-.7 1.6-1.6 1.6z"/><path class="st4" d="M182.1 365.6c-.9 0-1.6-.7-1.6-1.6v-14c0-.9.7-1.6 1.6-1.6s1.6.7 1.6 1.6v14c0 .9-.7 1.6-1.6 1.6z"/><g><path class="st7" d="M155.3 349.6h-40.4c-2.1 0-3.8-1.7-3.8-3.8v-7.7c0-2.1 1.7-3.8 3.8-3.8h40.4c2.1 0 3.8 1.7 3.8 3.8v7.7c0 2.1-1.7 3.8-3.8 3.8z"/><path class="st4" d="M155.3 351.2h-40.4c-3 0-5.4-2.4-5.4-5.4v-7.7c0-3 2.4-5.4 5.4-5.4h40.4c3 0 5.4 2.4 5.4 5.4v7.7c0 3-2.4 5.4-5.4 5.4zm-40.4-15.3c-1.2 0-2.2 1-2.2 2.2v7.7c0 1.2 1 2.2 2.2 2.2h40.4c1.2 0 2.2-1 2.2-2.2v-7.7c0-1.2-1-2.2-2.2-2.2h-40.4z"/></g><g><path class="st7" d="M155.3 365h-40.4c-2.1 0-3.8-1.7-3.8-3.8v-7.7c0-2.1 1.7-3.8 3.8-3.8h40.4c2.1 0 3.8 1.7 3.8 3.8v7.7c0 2.1-1.7 3.8-3.8 3.8z"/><path class="st4" d="M155.3 366.6h-40.4c-3 0-5.4-2.4-5.4-5.4v-7.7c0-3 2.4-5.4 5.4-5.4h40.4c3 0 5.4 2.4 5.4 5.4v7.7c0 3-2.4 5.4-5.4 5.4zm-40.4-15.4c-1.2 0-2.2 1-2.2 2.2v7.7c0 1.2 1 2.2 2.2 2.2h40.4c1.2 0 2.2-1 2.2-2.2v-7.7c0-1.2-1-2.2-2.2-2.2h-40.4z"/></g><g><path class="st4" d="M143.1 350.6c-.9 0-1.6-.7-1.6-1.6v-14c0-.9.7-1.6 1.6-1.6s1.6.7 1.6 1.6v14c0 .9-.7 1.6-1.6 1.6z"/></g><g><path class="st4" d="M143.1 365.6c-.9 0-1.6-.7-1.6-1.6v-14c0-.9.7-1.6 1.6-1.6s1.6.7 1.6 1.6v14c0 .9-.7 1.6-1.6 1.6z"/></g></g><g><path class="st7" d="M472.6 365h-40.4c-2.1 0-3.8-1.7-3.8-3.8v-7.7c0-2.1 1.7-3.8 3.8-3.8h40.4c2.1 0 3.8 1.7 3.8 3.8v7.7c0 2.1-1.7 3.8-3.8 3.8z"/><path class="st4" d="M472.6 366.6h-40.4c-3 0-5.4-2.4-5.4-5.4v-7.7c0-3 2.4-5.4 5.4-5.4h40.4c3 0 5.4 2.4 5.4 5.4v7.7c0 3-2.4 5.4-5.4 5.4zm-40.4-15.4c-1.2 0-2.2 1-2.2 2.2v7.7c0 1.2 1 2.2 2.2 2.2h40.4c1.2 0 2.2-1 2.2-2.2v-7.7c0-1.2-1-2.2-2.2-2.2h-40.4z"/><path class="st4" d="M460.4 365.6c-.9 0-1.6-.7-1.6-1.6v-14c0-.9.7-1.6 1.6-1.6s1.6.7 1.6 1.6v14c0 .9-.7 1.6-1.6 1.6z"/><g><path class="st7" d="M509.6 364.7l-36.9-16.3c-1.9-.9-2.8-3.1-1.9-5l3.1-7.1c.9-1.9 3.1-2.8 5-1.9l36.9 16.3c1.9.9 2.8 3.1 1.9 5l-3.1 7.1c-.8 1.8-3.1 2.7-5 1.9z"/><path class="st4" d="M511.2 366.6c-.7 0-1.5-.2-2.2-.5l-37-16.3c-1.3-.6-2.3-1.7-2.9-3-.5-1.4-.5-2.8.1-4.2l3.1-7.1c1.2-2.7 4.4-4 7.2-2.8l36.9 16.3c1.3.6 2.3 1.7 2.9 3 .5 1.4.5 2.8-.1 4.2l-3.1 7.1c-.6 1.3-1.7 2.3-3 2.9-.6.3-1.3.4-1.9.4zm-.9-3.4c.5.2 1.1.3 1.7 0 .5-.2 1-.6 1.2-1.2l3.1-7.1c.2-.5.3-1.1 0-1.7-.2-.5-.6-1-1.2-1.2l-36.9-16.3c-1.1-.5-2.4 0-2.9 1.1l-3.1 7.1c-.2.5-.3 1.1 0 1.7.2.5.6 1 1.2 1.2l36.9 16.4z"/><g><path class="st5" d="M504.5 346l-5.6 12.8"/><path class="st4" d="M498.9 360.4c-.2 0-.4 0-.7-.1-.8-.4-1.2-1.3-.8-2.1l5.7-12.8c.4-.8 1.3-1.2 2.1-.8.8.4 1.2 1.3.8 2.1l-5.7 12.8c-.2.6-.8.9-1.4.9z"/></g></g></g></g></svg>