<svg xmlns="http://www.w3.org/2000/svg" viewBox="0 0 609.2 404.4"><style>.st3{fill:#33abfd}.st4{fill:#434345}.st5{fill:#75d6fe}</style><g id="Layer_2"><path class="st3" d="M224.5 363.5l1.4 1h233.6l1.4-1c22.9-16.8 36.5-43.7 36.5-72.1V144.7c0-14.8-12-26.8-26.8-26.8h-67.8c-6 0-11.8-1.8-16.8-5.1l-32-21.3c-6.9-4.6-15.8-4.6-22.7 0l-31.9 21.3c-5 3.3-10.8 5.1-16.8 5.1h-67.8c-14.8 0-26.8 12-26.8 26.8v146.8c0 28.3 13.6 55.3 36.5 72z" opacity=".09"/><path class="st4" d="M557.5 366.6H51.7c-.9 0-1.6-.7-1.6-1.6s.7-1.6 1.6-1.6h505.8c.9 0 1.6.7 1.6 1.6s-.7 1.6-1.6 1.6z"/><path class="st5" d="M170.2 319.7c-15.4-11.3-24.6-29.4-24.6-48.5v-98.8c0-10 8.1-18 18-18h45.7c4 0 8-1.2 11.3-3.4l21.5-14.3c4.6-3.1 10.7-3.1 15.3 0l21.5 14.3c3.4 2.2 7.3 3.4 11.3 3.4h45.7c10 0 18 8.1 18 18v98.8c0 19.1-9.2 37.2-24.6 48.5l-71.4 52.4c-4.8 3.6-11.4 3.6-16.3 0l-71.4-52.4z"/><path class="st4" d="M249.8 376.4c-3.2 0-6.4-1-9.1-3L169.2 321c-15.8-11.6-25.2-30.2-25.2-49.8v-98.8c0-10.8 8.8-19.7 19.7-19.7h45.7c3.7 0 7.3-1.1 10.4-3.2l21.5-14.3c5.2-3.5 11.9-3.5 17.1 0l21.5 14.3c3.1 2.1 6.7 3.2 10.4 3.2H336c10.8 0 19.7 8.8 19.7 19.7v98.8c0 19.6-9.4 38.2-25.2 49.8l-71.4 52.4c-2.9 2-6.1 3-9.3 3zm-78.6-58l71.4 52.4a12 12 0 0014.4 0l71.4-52.4c15-11 23.9-28.6 23.9-47.2v-98.8c0-9.1-7.4-16.4-16.4-16.4h-45.7c-4.4 0-8.6-1.3-12.2-3.7L256.5 138c-4.1-2.7-9.4-2.7-13.5 0l-21.5 14.3c-3.6 2.4-7.9 3.7-12.2 3.7h-45.7c-9.1 0-16.4 7.4-16.4 16.4v98.8c0 18.5 9 36.2 24 47.2z"/><path class="st5" d="M257.9 354.5l63.1-46.2c11.8-8.7 18.8-22.4 18.8-37.1v-98.8c0-2.1-1.7-3.9-3.9-3.9h-45.7c-6.8 0-13.5-2-19.2-5.8l-13.6-9.1c-4.6-3.1-10.7-3.1-15.3 0l-13.6 9.1c-5.7 3.8-12.4 5.8-19.2 5.8h-45.7c-2.1 0-3.9 1.7-3.9 3.9v98.8c0 14.6 7 28.4 18.8 37.1l63.1 46.2c4.9 3.5 11.5 3.5 16.3 0z"/><path class="st4" d="M249.8 358.8c-3.2 0-6.4-1-9.1-3l-63.1-46.2c-12.2-8.9-19.5-23.3-19.5-38.4v-98.8c0-3 2.5-5.5 5.5-5.5h45.7c6.5 0 12.9-1.9 18.3-5.5l13.6-9.1c5.2-3.5 11.9-3.5 17.1 0l13.6 9.1c5.4 3.6 11.8 5.5 18.3 5.5h45.7c3 0 5.5 2.5 5.5 5.5v98.8c0 15.1-7.3 29.5-19.5 38.4l-63.1 46.2-1-1.3 1 1.3c-2.6 2-5.8 3-9 3zm-86.2-188.7c-1.2 0-2.2 1-2.2 2.2v98.8c0 14.1 6.8 27.5 18.1 35.8l63.1 46.2a12 12 0 0014.4 0l63.1-46.2c11.4-8.3 18.1-21.7 18.1-35.8v-98.8c0-1.2-1-2.2-2.2-2.2h-45.7c-7.2 0-14.1-2.1-20.1-6.1l-13.6-9.1c-4.1-2.7-9.4-2.7-13.5 0l-13.6 9.1c-6 4-12.9 6.1-20.1 6.1h-45.8z"/><path class="st3" d="M257.9 354.5l63.1-46.2c11.8-8.7 18.8-22.4 18.8-37.1v-98.8c0-2.1-1.7-3.9-3.9-3.9h-45.7c-6.8 0-13.5-2-19.2-5.8l-13.6-9.1c-4.6-3.1-10.7-3.1-15.3 0l-13.6 9.1c-5.7 3.8-12.4 5.8-19.2 5.8h-45.7c-2.1 0-3.9 1.7-3.9 3.9v98.8c0 14.6 7 28.4 18.8 37.1l63.1 46.2c4.9 3.5 11.5 3.5 16.3 0z"/><path class="st4" d="M249.8 358.8c-3.2 0-6.4-1-9.1-3l-63.1-46.2c-12.2-8.9-19.5-23.3-19.5-38.4v-98.8c0-3 2.5-5.5 5.5-5.5h45.7c6.5 0 12.9-1.9 18.3-5.5l13.6-9.1c5.2-3.5 11.9-3.5 17.1 0l13.6 9.1c5.4 3.6 11.8 5.5 18.3 5.5h45.7c3 0 5.5 2.5 5.5 5.5v98.8c0 15.1-7.3 29.5-19.5 38.4l-63.1 46.2-1-1.3 1 1.3c-2.6 2-5.8 3-9 3zm-86.2-188.7c-1.2 0-2.2 1-2.2 2.2v98.8c0 14.1 6.8 27.5 18.1 35.8l63.1 46.2a12 12 0 0014.4 0l63.1-46.2c11.4-8.3 18.1-21.7 18.1-35.8v-98.8c0-1.2-1-2.2-2.2-2.2h-45.7c-7.2 0-14.1-2.1-20.1-6.1l-13.6-9.1c-4.1-2.7-9.4-2.7-13.5 0l-13.6 9.1c-6 4-12.9 6.1-20.1 6.1h-45.8z"/><circle cx="249.8" cy="252.3" r="49.8" fill="#73f9df"/><path class="st4" d="M249.8 303.7c-28.4 0-51.4-23.1-51.4-51.4 0-28.4 23.1-51.4 51.4-51.4s51.4 23.1 51.4 51.4c0 28.3-23.1 51.4-51.4 51.4zm0-99.6c-26.6 0-48.2 21.6-48.2 48.2s21.6 48.2 48.2 48.2 48.2-21.6 48.2-48.2-21.7-48.2-48.2-48.2z"/><g><path class="st4" d="M243.8 275.1c-.4 0-.8-.2-1.1-.5l-18-18c-.6-.6-.6-1.7 0-2.3.6-.6 1.7-.6 2.3 0l16.7 16.7 28.9-34.6c.6-.7 1.6-.8 2.3-.2.7.6.8 1.6.2 2.3l-30 36c-.4.4-.8.6-1.3.6z"/></g><g><path class="st5" d="M456.6 365h-104c-3.9 0-7-3.1-7-7v-82c0-3.9 3.1-7 7-7h104c3.9 0 7 3.1 7 7v82c0 3.8-3.1 7-7 7z"/><path class="st4" d="M456.6 366.6h-104c-4.8 0-8.6-3.9-8.6-8.6v-82c0-4.8 3.9-8.6 8.6-8.6h104c4.8 0 8.6 3.9 8.6 8.6v82c0 4.7-3.8 8.6-8.6 8.6zm-104-96c-3 0-5.4 2.4-5.4 5.4v82c0 3 2.4 5.4 5.4 5.4h104c3 0 5.4-2.4 5.4-5.4v-82c0-3-2.4-5.4-5.4-5.4h-104z"/><path d="M416.6 306.6c0-6.6-5.4-12-12-12s-12 5.4-12 12c0 4.4 2.4 8.3 6 10.4v18c0 3.3 2.7 6 6 6s6-2.7 6-6v-18c3.6-2.1 6-5.9 6-10.4z" fill="#fff"/><path class="st4" d="M404.6 342.6c-4.2 0-7.6-3.4-7.6-7.6v-17.1c-3.7-2.5-6-6.8-6-11.3 0-7.5 6.1-13.6 13.6-13.6s13.6 6.1 13.6 13.6c0 4.5-2.3 8.8-6 11.3V335c0 4.2-3.4 7.6-7.6 7.6zm0-46.3c-5.7 0-10.4 4.7-10.4 10.4 0 3.7 2 7.1 5.2 9 .5.3.8.8.8 1.4v18c0 2.4 2 4.4 4.4 4.4s4.4-2 4.4-4.4v-18c0-.6.3-1.1.8-1.4 3.2-1.9 5.2-5.3 5.2-9 0-5.8-4.7-10.4-10.4-10.4z"/><g><path d="M364.6 269v-16.3c0-22.1 17.9-40 40-40s40 17.9 40 40V269h-16.3v-16.3c0-13.1-10.6-23.7-23.7-23.7s-23.7 10.6-23.7 23.7V269h-16.3z" fill="#c2c4c6"/><path class="st4" d="M444.6 270.6h-16.3c-.9 0-1.6-.7-1.6-1.6v-16.3c0-12.2-9.9-22-22-22s-22 9.9-22 22V269c0 .9-.7 1.6-1.6 1.6h-16.3c-.9 0-1.6-.7-1.6-1.6v-16.3c0-22.9 18.7-41.6 41.6-41.6s41.6 18.7 41.6 41.6V269c-.2.9-.9 1.6-1.8 1.6zm-14.7-3.2H443v-14.7c0-21.2-17.2-38.4-38.4-38.4s-38.4 17.2-38.4 38.4v14.7h13.1v-14.7c0-13.9 11.3-25.3 25.3-25.3s25.3 11.3 25.3 25.3v14.7z"/></g></g><g><circle class="st4" cx="183.8" cy="216.5" r="3"/><circle class="st4" cx="171.8" cy="216.5" r="3"/><circle class="st4" cx="183.8" cy="204.5" r="3"/><circle class="st4" cx="171.8" cy="204.5" r="3"/><circle class="st4" cx="183.8" cy="192.5" r="3"/><circle class="st4" cx="171.8" cy="192.5" r="3"/><circle class="st4" cx="171.8" cy="228.5" r="3"/><circle class="st4" cx="171.8" cy="240.5" r="3"/><circle class="st4" cx="171.8" cy="252.5" r="3"/><circle class="st4" cx="183.8" cy="180.5" r="3"/><circle class="st4" cx="195.8" cy="180.5" r="3"/><circle class="st4" cx="171.8" cy="180.5" r="3"/></g><g><circle class="st4" cx="428.8" cy="354.6" r="3"/><circle class="st4" cx="440.8" cy="342.6" r="3"/><circle class="st4" cx="452.8" cy="318.6" r="3"/><circle class="st4" cx="440.8" cy="354.6" r="3"/><circle class="st4" cx="452.8" cy="330.6" r="3"/><circle class="st4" cx="452.8" cy="342.5" r="3"/><circle class="st4" cx="452.8" cy="354.5" r="3"/></g></g></svg>