<svg xmlns="http://www.w3.org/2000/svg" viewBox="0 0 609.2 404.4"><style>.st2{fill:#434345}.st4{fill:#33abfd}.st7{fill:#e4e4e5}.st8{fill:#75d6fe}</style><g id="Layer_2"><path class="st4" d="M201.1 357.1c29.4 0 55.8-12.6 74.2-32.7V365h233.4v-36c0-8-6.5-14.5-14.5-14.5s-14.5 6.5-14.5 14.5v-9.1c0-8-6.5-14.5-14.5-14.5s-14.5 6.5-14.5 14.5V307c0-6.7-4.5-12.3-10.7-13.9V138.3c0-9.5-7.7-17.2-17.2-17.2H292.4c-9.5 0-17.2 7.7-17.2 17.2v50.6c-18.4-20.1-44.8-32.7-74.2-32.7-55.5 0-100.5 45-100.5 100.5 0 55.4 45 100.4 100.6 100.4z" opacity=".09"/><path class="st2" d="M557.5 366.6H51.7c-.9 0-1.6-.7-1.6-1.6s.7-1.6 1.6-1.6h505.8c.9 0 1.6.7 1.6 1.6s-.7 1.6-1.6 1.6z"/><circle cx="236.6" cy="220.7" r="66" fill="#c2c4c6"/><path class="st2" d="M236.6 288.4c-37.3 0-67.6-30.3-67.6-67.6s30.3-67.6 67.6-67.6 67.6 30.3 67.6 67.6-30.3 67.6-67.6 67.6zm0-132c-35.5 0-64.4 28.9-64.4 64.4s28.9 64.4 64.4 64.4 64.4-28.9 64.4-64.4-28.9-64.4-64.4-64.4z"/><circle cx="236.6" cy="220.7" r="57" fill="#73f9df"/><path class="st2" d="M236.6 279.4c-32.3 0-58.6-26.3-58.6-58.6s26.3-58.6 58.6-58.6 58.6 26.3 58.6 58.6-26.3 58.6-58.6 58.6zm0-114c-30.5 0-55.4 24.8-55.4 55.4s24.8 55.4 55.4 55.4 55.4-24.8 55.4-55.4-24.9-55.4-55.4-55.4z"/><path class="st7" d="M232.4 216.5l33.9-33.9 8.5 8.5-33.9 33.9"/><path class="st2" d="M240.9 226.6c-.4 0-.8-.2-1.1-.5-.6-.6-.6-1.7 0-2.3l32.8-32.8-6.2-6.2-32.8 32.8c-.6.6-1.7.6-2.3 0-.6-.6-.6-1.7 0-2.3l33.9-33.9c.6-.6 1.7-.6 2.3 0l8.5 8.5c.3.3.5.7.5 1.1s-.2.8-.5 1.1l-34 34c-.3.4-.7.5-1.1.5z"/><path class="st7" d="M235.9 211.6l-18.4-18.4-8.5 8.5 23.4 23.3"/><path class="st2" d="M232.4 226.6c-.4 0-.8-.2-1.1-.5L208 202.8c-.3-.3-.5-.7-.5-1.1s.2-.8.5-1.1l8.5-8.5c.6-.6 1.7-.6 2.3 0l18.4 18.4c.6.6.6 1.7 0 2.3-.6.6-1.7.6-2.3 0l-17.2-17.2-6.2 6.2 22.2 22.2c.6.6.6 1.7 0 2.3-.5.2-.9.3-1.3.3z"/><circle class="st7" cx="236.6" cy="220.7" r="6"/><path class="st2" d="M236.6 228.4c-2 0-3.9-.7-5.4-2.2-1.4-1.4-2.2-3.4-2.2-5.4s.8-3.9 2.2-5.4c3-3 7.8-3 10.8 0 1.4 1.4 2.2 3.4 2.2 5.4s-.8 3.9-2.2 5.4c-1.5 1.4-3.4 2.2-5.4 2.2zm0-12c-1.1 0-2.2.4-3.1 1.3-.8.8-1.3 1.9-1.3 3.1s.5 2.3 1.3 3.1c1.7 1.7 4.5 1.7 6.2 0 .8-.8 1.3-1.9 1.3-3.1s-.5-2.3-1.3-3.1c-.8-.9-2-1.3-3.1-1.3z"/><path class="st8" d="M232.4 225l-29.7 29.7"/><path class="st2" d="M202.7 256.3c-.4 0-.8-.2-1.1-.5-.6-.6-.6-1.7 0-2.3l29.7-29.7c.6-.6 1.7-.6 2.3 0 .6.6.6 1.7 0 2.3l-29.7 29.7c-.4.4-.8.5-1.2.5zM236.6 183.9c-.9 0-1.6-.7-1.6-1.6v-13c0-.9.7-1.6 1.6-1.6s1.6.7 1.6 1.6v13c0 .8-.7 1.6-1.6 1.6zM236.6 273.9c-.9 0-1.6-.7-1.6-1.6v-13c0-.9.7-1.6 1.6-1.6s1.6.7 1.6 1.6v13c0 .9-.7 1.6-1.6 1.6z"/><g><path class="st2" d="M288.1 222.4h-13c-.9 0-1.6-.7-1.6-1.6s.7-1.6 1.6-1.6h13c.9 0 1.6.7 1.6 1.6s-.7 1.6-1.6 1.6zM198.1 222.4h-13c-.9 0-1.6-.7-1.6-1.6s.7-1.6 1.6-1.6h13c.9 0 1.6.7 1.6 1.6s-.7 1.6-1.6 1.6z"/></g><g><path class="st4" d="M350.6 330.7h-54c-6.2 0-11.3-5-11.3-11.3V143c0-6.2 5-11.3 11.3-11.3h85.7c6.2 0 11.3 5 11.3 11.3v100.7"/><path class="st2" d="M350.6 332.4h-54c-7.1 0-12.9-5.8-12.9-12.9V143c0-7.1 5.8-12.9 12.9-12.9h85.7c7.1 0 12.9 5.8 12.9 12.9v100.7c0 .9-.7 1.6-1.6 1.6s-1.6-.7-1.6-1.6V143c0-5.3-4.3-9.7-9.7-9.7h-85.7c-5.3 0-9.7 4.3-9.7 9.7v176.4c0 5.3 4.3 9.7 9.7 9.7h54c.9 0 1.6.7 1.6 1.6s-.7 1.7-1.6 1.7z"/></g><g><path class="st8" d="M285.6 156.7h108v144h-108z"/><path class="st2" d="M393.6 302.4h-108c-.9 0-1.6-.7-1.6-1.6v-144c0-.9.7-1.6 1.6-1.6h108c.9 0 1.6.7 1.6 1.6v144c0 .8-.7 1.6-1.6 1.6zm-106.4-3.3H392V158.4H287.2v140.7z"/></g><g><circle class="st2" cx="309.6" cy="204.7" r="3"/><circle class="st2" cx="297.6" cy="204.7" r="3"/><circle class="st2" cx="309.6" cy="192.7" r="3"/><circle class="st2" cx="297.6" cy="192.7" r="3"/><circle class="st2" cx="309.6" cy="180.7" r="3"/><circle class="st2" cx="297.6" cy="180.7" r="3"/><circle class="st2" cx="333.6" cy="180.7" r="3"/><circle class="st2" cx="345.6" cy="180.7" r="3"/><circle class="st2" cx="357.6" cy="168.7" r="3"/><circle class="st2" cx="321.6" cy="192.7" r="3"/><circle class="st2" cx="309.6" cy="216.7" r="3"/><circle class="st2" cx="297.6" cy="216.7" r="3"/><circle class="st2" cx="297.6" cy="228.7" r="3"/><circle class="st2" cx="297.6" cy="240.7" r="3"/><circle class="st2" cx="309.6" cy="168.7" r="3"/><circle class="st2" cx="333.6" cy="168.7" r="3"/><circle class="st2" cx="321.6" cy="180.7" r="3"/><circle class="st2" cx="345.6" cy="168.7" r="3"/><circle class="st2" cx="321.6" cy="168.7" r="3"/><circle class="st2" cx="297.6" cy="168.7" r="3"/></g><g><path class="st2" d="M357.5 146.4h-36c-.9 0-1.6-.7-1.6-1.6s.7-1.6 1.6-1.6h36c.9 0 1.6.7 1.6 1.6s-.7 1.6-1.6 1.6z"/></g><g><path class="st8" d="M356.6 348.7h78v26h-78z"/><path class="st2" d="M434.6 376.4h-78c-.9 0-1.6-.7-1.6-1.6v-26c0-.9.7-1.6 1.6-1.6h78c.9 0 1.6.7 1.6 1.6v26c0 .8-.7 1.6-1.6 1.6zm-76.4-3.3H433v-22.8h-74.8v22.8z"/></g><g><path d="M381.6 264.7v-11c0-5.2 4.3-9.5 9.5-9.5s9.5 4.3 9.5 9.5V268v-5.8c0-5.2 4.3-9.5 9.5-9.5s9.5 4.3 9.5 9.5v14.2-8.2c0-5.2 4.3-9.5 9.5-9.5s9.5 4.3 9.5 9.5V320c0 8.4-6 15.3-14 16.7v12h-58v-12c-13.3 0-24-10.7-24-24v-25c0-8.4 7-15.6 15-17v24-90c0-6.6 5.4-12 12-12s12 5.4 12 12v60-11" fill="#ffebcc"/><path class="st2" d="M424.6 350.4h-58c-.9 0-1.6-.7-1.6-1.6v-10.4c-13.4-.8-24-12-24-25.6v-25c0-8.4 6.5-16.1 15-18.3v-64.7c0-7.5 6.1-13.6 13.6-13.6s13.6 6.1 13.6 13.6V246c2-2 4.8-3.3 7.9-3.3 6.1 0 11.1 5 11.1 11.1v.7c2-2 4.8-3.3 7.9-3.3 5.6 0 10.2 4.1 11 9.4 2-2.1 4.9-3.4 8-3.4 6.1 0 11.1 5 11.1 11.1v51.8c0 8.6-5.8 15.9-14 18v10.7c0 .8-.7 1.6-1.6 1.6zm-56.4-3.3H423v-10.4c0-.8.6-1.5 1.3-1.6 7.3-1.3 12.7-7.6 12.7-15.1v-51.8c0-4.3-3.5-7.9-7.9-7.9s-7.9 3.5-7.9 7.9v8.2c0 .9-.7 1.6-1.6 1.6s-1.6-.7-1.6-1.6v-14.2c0-4.3-3.5-7.9-7.9-7.9s-7.9 3.5-7.9 7.9v5.8c0 .9-.7 1.6-1.6 1.6s-1.6-.7-1.6-1.6v-14.2c0-4.3-3.5-7.9-7.9-7.9s-7.9 3.5-7.9 7.9v11c0 .9-.7 1.6-1.6 1.6s-1.6-.7-1.6-1.6v-60c0-5.7-4.7-10.4-10.4-10.4s-10.4 4.7-10.4 10.4v90c0 .9-.7 1.6-1.6 1.6s-1.6-.7-1.6-1.6v-22c-6.6 2-11.8 8.4-11.8 14.9v25c0 12.3 10 22.4 22.4 22.4.9 0 1.6.7 1.6 1.6v10.4z"/></g></g></svg>