<svg version="1.1" id="Layer_1" xmlns="http://www.w3.org/2000/svg" x="0" y="0" viewBox="0 0 511 511" xml:space="preserve"><style>.st2{fill:#5b5b5b}</style><path d="M502.5 400.2c-.1 56.6-46 102.3-102.5 102.3-4.2 0-8.5-.3-12.7-.8-51.3-6.3-89.8-49.9-89.8-101.6s38.5-95.3 89.8-101.6c4.2-.5 8.5-.8 12.7-.8 56.5.1 102.4 45.9 102.5 102.5z" fill="#33abfd"/><path d="M453.6 360.2l-79.3 79.3-28.1-28.1c-3.3-3.2-8.7-3.2-12 .1-3.3 3.3-3.3 8.6-.1 12l28.1 28.1c6.7 6.7 17.5 6.7 24.1 0l79.3-79.3c3.2-3.3 3.2-8.7-.1-12-3.2-3.3-8.5-3.3-11.9-.1z" fill="#fff"/><path class="st2" d="M135 149.2c-2.8 1.3-4.6 4-4.9 7-.2 3 1.1 6 3.7 7.7s5.8 2 8.5.7c10.5-5 21.8-8.3 33.4-9.8 3-.4 5.6-2.4 6.8-5.2s.8-6-1.1-8.5c-1.8-2.4-4.8-3.7-7.9-3.3-13.3 1.8-26.3 5.6-38.5 11.4zM72.1 434.9c.9 0 1.8-.1 2.7-.4 2.1-.7 3.9-2.3 4.9-4.3s1.2-4.4.4-6.5c-2.9-8.7-4.4-17.9-4.3-27.1v-21.8c0-4.7-3.8-8.5-8.5-8.5s-8.5 3.8-8.5 8.5V397c0 10.9 1.7 21.7 5.2 32.1 1.2 3.5 4.4 5.8 8.1 5.8zM102.9 194.8c4.4-5.3 9.4-10.2 14.7-14.6 2.4-1.9 3.5-5 3-8s-2.6-5.5-5.4-6.6c-2.9-1.1-6.1-.5-8.4 1.4-18.8 15.6-32.9 36.1-40.9 59.2-4.8 13.7-7.2 28.2-7.2 42.7v71.7c0 4.7 3.8 8.5 8.5 8.5s8.5-3.8 8.5-8.5v-71.7c.2-27.1 9.7-53.4 27.2-74.1zM313.3 261.9c.4 0 .8 0 1.2-.1 4.7-.7 7.9-5 7.2-9.7-8.2-58.5-53.6-104.7-111.9-114-3-.4-6 .8-7.9 3.2s-2.3 5.6-1.2 8.4c1.1 2.8 3.7 4.8 6.7 5.3 50.8 8.2 90.4 48.6 97.4 99.6.7 4.2 4.2 7.3 8.5 7.3zM254.8 267c-1.2-34.5-29.4-61.8-63.9-62-3.7 0-7.4.3-11 1-14.9 2.6-28.4 10.4-38.1 22.1-8.7 10.2-13.8 22.9-14.6 36.3-.2 1.5-.3 3.1-.3 4.6v40.2c0 16 0 35.3.1 55.6-.1 30.3 13.5 58.9 36.9 78.1l9.2 7.5c60.4 49.6 60.6 49.7 61.3 50.1 1.4.9 3 1.4 4.7 1.4 3.7 0 7-2.3 8.2-5.8s0-7.4-3-9.6c-1.6-1.3-30.2-24.7-60.3-49.4l-9.2-7.5c-19.6-16.1-30.8-40.1-30.7-65.4-.1-19.8-.1-39.1-.1-55.1v-40.2c0-1 0-1.9.2-2.9.5-10 4.3-19.5 10.8-27.1 7.1-8.6 17.1-14.4 28.1-16.3 2.6-.5 5.3-.7 7.9-.7 25.3.1 46 20.3 46.8 45.6 0 .4 0 .9.1 1.3v43.5c0 17.7 4.7 35 13.5 50.3 1.5 2.8 4.3 4.5 7.4 4.6 3.1 0 6-1.6 7.6-4.4 1.5-2.7 1.4-6.1-.2-8.7-7.4-12.9-11.3-27.5-11.2-42.4v-42.9c-.1-.5-.1-1.2-.2-1.8z"/><path class="st2" d="M258.2 474.9c4.1 1.4 8.5-.5 10.4-4.3s.6-8.5-2.9-10.9c-.8-.6-2.7-2.2-5.6-4.5l-7.6-6.2c-.2-.2-.5-.5-.8-.7-10.5-8.5-25.7-21-42.6-34.8a83.466 83.466 0 01-30.7-65v-11.3c-.1-17-.1-32.4-.1-44.4v-24c0-3.4 1.3-6.7 3.7-9.1 2.2-2.2 5.1-3.5 8.3-3.7 3.3-.1 6.6 1.1 9 3.5 2.9 2.8 4.6 6.7 4.6 10.7v13.6c0 10.7 0 26.2-.1 44.2v1c.1 30 13.6 58.4 36.7 77.5 3.5 2.9 6.9 5.8 10.1 8.3 3.7 3 9 2.4 12-1.3s2.4-9-1.3-12c-3.1-2.6-6.5-5.3-10-8.2-19.2-15.9-30.4-39.5-30.5-64.4v-1c.1-17.9.1-33.5.1-44.1v-13.6c0-8.7-3.6-17.1-10-23.1-5.8-5.6-13.7-8.5-21.7-8.1-7.3.5-14.1 3.6-19.3 8.7-5.6 5.6-8.7 13.2-8.7 21.1v24c0 11.9 0 27.4.1 44.4v11.3c0 30.3 13.5 59 37 78.2 16.5 13.5 31.4 25.7 41.9 34.2.2.3.5.5.8.7l8.4 6.8c7.2 5.9 7.2 5.9 8.8 6.5zM70.6 45.6c1.3 0 2.7-.3 3.9-.9 51.8-26.3 111-34 167.8-21.6 4.6 1 9.2-1.9 10.2-6.5s-1.9-9.2-6.5-10.2c-60.7-13.2-124-5-179.2 23.1-3.5 1.8-5.3 5.8-4.4 9.6s4.3 6.5 8.2 6.5zM273.9 32.2C284.6 36 295 40.6 305 45.9c2.7 1.4 5.9 1.3 8.5-.3s4.1-4.5 4-7.5-1.8-5.8-4.5-7.2a259.2 259.2 0 00-33.3-14.7c-4.4-1.6-9.3.7-10.9 5.1s.6 9.2 5.1 10.9z"/><path class="st2" d="M27.8 121.3c2.3 0 4.6-1 6.2-2.6 54.8-57.5 136.6-80.4 213.2-59.8 3 .9 6.2.1 8.4-2 2.2-2.2 3.1-5.4 2.3-8.4s-3.2-5.3-6.2-6c-82.7-22.3-171 2.4-230.1 64.4-2.4 2.5-3 6.1-1.7 9.2 1.4 3.1 4.5 5.2 7.9 5.2zM285 54c-.6-.2-1.2-.3-1.8-.4-.5-.2-1-.3-1.6-.3h-.1c-.4.1-.8.1-1.2.2-1.3 0-2.5.5-3.4 1.3-.5.2-.9.5-1.3.9-.5.5-.9 1.1-1.2 1.7-.2.3-.5.6-.6.9v.1c-.2.5-.3 1.1-.4 1.6-.2.6-.3 1.1-.3 1.7v.1c0 .4.1.7.2 1.1.1.7.2 1.4.4 2.1.2.5.5 1 .9 1.4.3.5.6.9.9 1.3.5.5 1.1.9 1.7 1.2l.9.6c33.3 14.7 62.4 37.5 84.7 66.2 2.9 3.6 8.2 4.2 11.9 1.3 3.7-2.8 4.4-8.1 1.6-11.8C352.2 94.4 320.8 69.9 285 54z"/><path class="st2" d="M83.4 120.6c16.5-12.1 34.9-21.3 54.4-27.2 2.9-.9 5.2-3.2 5.9-6.2s-.3-6.1-2.5-8.2-5.5-2.8-8.4-1.9c-21.4 6.5-41.5 16.6-59.5 29.8-3.8 2.8-4.6 8.1-1.8 11.9 2.8 3.8 8.1 4.6 11.9 1.8zM5.9 217.6c4.5 1.5 9.3-1 10.7-5.5 8.2-25.5 22.1-48.9 40.5-68.4 2.1-2.2 2.9-5.4 2-8.3-.9-2.9-3.3-5.2-6.2-5.9-3-.7-6.1.3-8.2 2.5C24.6 153.3 9.4 178.9.4 206.8c-1.4 4.5 1 9.3 5.5 10.8zM381.6 256.1c.3 0 .6 0 .9-.1 4.7-.5 8-4.7 7.5-9.4-11-101.5-96.9-178.3-199-178.1-7.4 0-14.9.4-22.3 1.2-3 .3-5.7 2.2-6.9 5s-.9 6.1.9 8.5c1.8 2.5 4.8 3.8 7.9 3.4 6.8-.7 13.6-1.1 20.4-1.1 93.5-.2 172 70.1 182.2 163 .4 4.3 4.1 7.6 8.4 7.6z"/><path class="st2" d="M348.2 263.9h.7c2.3-.2 4.3-1.3 5.8-3s2.2-4 2-6.2c-3.1-36.1-17.9-70.3-42-97.4-3.2-3.5-8.5-3.7-12-.6s-3.8 8.5-.7 12c21.7 24.3 34.9 55 37.7 87.5.4 4.3 4 7.7 8.5 7.7zM55.1 207.3C79.8 152.6 135 118 195 119.7c4.7.1 8.6-3.6 8.8-8.3.1-4.7-3.6-8.6-8.3-8.7-66.9-1.9-128.4 36.6-155.9 97.6-8.7 18.9-13.7 39.3-14.8 60-.1 2.8-.2 5.7-.2 8.6 0 19.1 0 29.3.1 30.4.3 4.5 4 8 8.5 8h.4c4.7-.2 8.3-4.2 8.1-8.9-.1-2.2-.1-28.1-.1-29.5 0-2.7.1-5.4.2-7.9 1-18.5 5.5-36.8 13.3-53.7zM231.5 125c16.3 4.3 31.6 11.5 45.4 21.1 3.9 2.7 9.2 1.7 11.9-2.1 2.7-3.9 1.7-9.2-2.1-11.9-15.5-10.8-32.7-18.8-50.9-23.6l-3.1-.8c-4.5-1-9 1.8-10.1 6.3s1.6 9.1 6 10.3l2.9.7z"/><path class="st2" d="M272.9 308.6c.6 4.7 4.9 7.9 9.6 7.3s7.9-4.9 7.3-9.6c-.5-3.5-.7-7-.7-10.5v-24.6c.9-36.5-18.5-70.4-50.4-88.1s-70.9-16.2-101.4 3.8c-12.5 8.2-23.1 19.2-30.7 32-6.8 11.4-11.2 24.1-12.8 37.2-.6 4.2-.9 8.4-.9 12.7v111.9c-.1 30.2 13.5 58.9 36.9 78.1l17.1 14.1c16.8 13.8 32.5 26.7 44.4 36.3 3.7 3 9 2.4 12-1.2 3-3.7 2.4-9-1.2-12-11.8-9.6-27.5-22.5-44.3-36.3l-17.1-14.1c-19.6-16-30.8-40-30.7-65.3V268.9c0-3.5.2-7 .7-10.5 1.3-10.9 4.9-21.3 10.6-30.7 16.3-27.4 47-42.8 78.7-39.4 41.7 5.1 72.8 40.8 72.1 82.8v25c-.1 4.3.2 8.4.8 12.5z"/><path d="M399.9 289.3c-61.2.1-110.8 49.8-110.7 111 .1 61.2 49.7 110.8 110.9 110.8s110.8-49.7 110.8-110.9c0-61.3-49.7-110.9-111-110.9zm0 204.7c-51.8-.1-93.7-42.1-93.6-93.9.1-51.8 42.1-93.7 93.9-93.7s93.8 42 93.8 93.8c-.2 51.8-42.2 93.8-94.1 93.8z" fill="#a4d9fd"/></svg>