<svg xmlns="http://www.w3.org/2000/svg" width="249" height="72"><path fill="none" d="M0 0h248.352v71.641H0z"/><path fill="#A4D9FD" d="M99.9 69.959a.79.79 0 01.589.248.815.815 0 01.248.598.793.793 0 01-.248.588.785.785 0 01-.589.248h-5.135a.79.79 0 01-.589-.248.788.788 0 01-.248-.588v-8.506c0-.234.083-.436.248-.596a.792.792 0 01.589-.248h.007l5.128.014c.232 0 .431.083.597.248.16.166.24.364.24.598 0 .23-.083.428-.248.588a.785.785 0 01-.589.248h-.007l-4.284-.014v2.573h3.093c.231 0 .431.081.596.241.166.165.248.363.248.596s-.082.432-.248.598a.825.825 0 01-.596.239h-3.093v2.575H99.9zM113.051 68.611c-.038.847-.376 1.563-1.014 2.147a3.295 3.295 0 01-2.298.882c-.771 0-1.462-.166-2.071-.498-.733-.396-1.199-.975-1.398-1.729a.824.824 0 01.597-1.015.811.811 0 01.631.086.803.803 0 01.383.511c.086.317.316.563.696.745.34.156.728.232 1.163.232.443 0 .824-.141 1.142-.418.321-.273.491-.613.51-1.021a.878.878 0 00-.262-.66c-.293-.313-.785-.473-1.476-.48h-.036c-1.158-.021-2.045-.354-2.66-1-.506-.539-.742-1.166-.709-1.882.038-.851.376-1.567 1.014-2.153.639-.586 1.405-.881 2.298-.881.771 0 1.461.166 2.071.496.733.396 1.199.976 1.397 1.73a.8.8 0 01-.092.631.777.777 0 01-.504.383.81.81 0 01-.631-.085.795.795 0 01-.383-.511c-.085-.314-.319-.564-.702-.744a2.75 2.75 0 00-1.157-.232c-.443 0-.827.14-1.148.418a1.403 1.403 0 00-.503 1.021.894.894 0 00.262.667c.293.308.785.466 1.476.476h.035c1.158.021 2.045.354 2.66 1.008.506.531.742 1.158.709 1.876M123.018 61.448c.88 0 1.629.291 2.25.872.623.582.938 1.281.938 2.1 0 .807-.303 1.494-.9 2.071-.597.571-1.32.872-2.171.901h-.03l-.085.006-.042-.006H120.9v3.41c0 .23-.081.428-.241.59-.165.166-.364.248-.596.248s-.428-.082-.589-.248a.79.79 0 01-.248-.59v-8.52c0-.23.082-.428.248-.59a.795.795 0 01.589-.248l2.955.004zm.05 4.269a1.55 1.55 0 001.028-.39c.284-.255.426-.558.426-.908 0-.354-.146-.66-.438-.915s-.648-.383-1.064-.383h-2.12v2.596h2.168zM132.134 71.576a.818.818 0 01-.454-.453.842.842 0 010-.639l.9-2.164v-.006l2.609-6.299c.011-.023.021-.049.035-.072l.016-.034c.014-.019.021-.03.027-.035 0-.005.006-.017.021-.035.017-.015.022-.022.028-.026 0-.006.008-.017.021-.029.019-.02.026-.029.026-.034.006-.006.017-.013.029-.021.02-.02.03-.028.034-.028-.004 0 .005-.007.028-.021a.319.319 0 00.035-.029l.027-.021c.023-.015.037-.021.043-.021a.189.189 0 01.051-.021c.021-.016.029-.02.021-.016l.027-.014a.398.398 0 00.051-.016c.005 0 .021-.006.05-.016l.027-.006c.01 0 .025-.004.051-.008l.034-.008h.163l.043.008.035.008c.01 0 .024.004.05.014.026.006.038.008.026.008a.606.606 0 01.185.078l.042.028.028.021.033.026c.006 0 .016.009.028.021a.12.12 0 00.036.029c0 .005.007.014.021.027.021.02.028.029.028.035l.021.027c.021.02.027.03.027.035s.008.018.021.035c.015.02.021.031.021.035a.41.41 0 01.034.07l2.61 6.299v.008l.898 2.162a.826.826 0 010 .64.822.822 0 01-.453.453.826.826 0 01-.317.063c-.374 0-.632-.174-.772-.519l-.682-1.646h-4.107l-.681 1.646c-.142.345-.399.519-.772.519h-.162a2.253 2.253 0 01-.141-.058m5.191-3.765l-1.369-3.291-1.36 3.291h2.729zM153.009 64.413c0 .624-.192 1.188-.582 1.694a3.036 3.036 0 01-1.475 1.07l1.608 3.264a.79.79 0 01.035.632.788.788 0 01-.418.481.833.833 0 01-.369.086.766.766 0 01-.744-.47l-1.879-3.81h-1.439v3.384a.806.806 0 01-.248.589.804.804 0 01-.589.241.824.824 0 01-.83-.83V62.29c0-.23.08-.428.239-.589a.806.806 0 01.591-.248h2.937c.875 0 1.619.288 2.233.864.62.579.93 1.277.93 2.096m-3.107 1.284a1.614 1.614 0 001.021-.391c.279-.252.419-.551.419-.896 0-.358-.146-.664-.439-.915a1.576 1.576 0 00-1.057-.376h-2.1v2.575l2.156.003zM159.939 71.641a.814.814 0 01-.59-.242.817.817 0 01-.248-.596v-8.49c0-.229.084-.431.248-.597a.807.807 0 01.59-.239h2.148c1.398 0 2.596.494 3.589 1.481.988.992 1.482 2.188 1.482 3.581 0 1.398-.494 2.594-1.482 3.582-.993.992-2.188 1.488-3.589 1.488l-2.135.029-.013.003zm.845-1.689l1.298-.021a3.27 3.27 0 002.402-.994 3.265 3.265 0 00.992-2.396c0-.932-.33-1.729-.992-2.391-.66-.668-1.461-1-2.396-1h-1.305l.001 6.802z"/><path fill="#33ABFD" d="M24.676 55.721c8.42 0 15.232-6.882 15.123-15.326-.108-8.312-7.036-14.922-15.348-14.922H12.75a3.197 3.197 0 00-3.198 3.197v3.156a3.198 3.198 0 003.198 3.198h11.801c3.123 0 5.755 2.557 5.696 5.681a5.574 5.574 0 01-5.571 5.464H3.198A3.197 3.197 0 000 49.366v3.155a3.198 3.198 0 003.198 3.199h21.478zM35.82 71.641c10.111 0 18.309-8.197 18.309-18.31V38.223a3.198 3.198 0 00-3.198-3.199h-3.156a3.198 3.198 0 00-3.197 3.199v15.108a8.756 8.756 0 01-8.757 8.756h-.781a3.198 3.198 0 00-3.198 3.198v3.154a3.198 3.198 0 003.198 3.199c.331.003.61.003.78.003M78.008 68.457a3.186 3.186 0 01-3.184 3.186 3.187 3.187 0 010-6.372 3.186 3.186 0 013.184 3.186M68.456 65.271a3.186 3.186 0 010-6.37h12.735a3.186 3.186 0 010 6.37H68.456zM96.316 46.168a5.571 5.571 0 01-5.571-5.57V28.67a3.198 3.198 0 00-3.198-3.197H84.39a3.198 3.198 0 00-3.198 3.197v11.928a5.572 5.572 0 01-5.571 5.57h-1.593a5.572 5.572 0 01-5.571-5.57v-37.4A3.2 3.2 0 0065.258 0h-3.156a3.199 3.199 0 00-3.198 3.198v37.397c0 8.354 6.771 15.125 15.124 15.125h1.593c4.004 0 7.642-1.561 10.348-4.102a15.069 15.069 0 0010.348 4.102h67.646a3.198 3.198 0 003.198-3.199v-3.155a3.197 3.197 0 00-3.198-3.197l-67.647-.001zM175.529 55.721h2.363a3.597 3.597 0 003.596-3.596V3.594A3.595 3.595 0 00177.892 0h-2.363a3.595 3.595 0 00-3.594 3.594v48.532a3.597 3.597 0 003.594 3.595"/><path fill="#A4D9FD" d="M195.837 3.055l22.261 12.852a3.193 3.193 0 003.197 0l22.262-12.852c2.131-1.231 4.797.308 4.797 2.769v3.645a3.198 3.198 0 01-1.6 2.771l-25.459 14.698c-.988.57-2.208.57-3.197 0L205.389 19.6c-2.132-1.231-4.796.307-4.796 2.769v3.646c0 1.142.608 2.197 1.599 2.769l15.906 9.184c.989.57 2.209.57 3.197 0l12.709-7.338c2.133-1.229 4.797.309 4.797 2.77v3.646a3.2 3.2 0 01-1.6 2.771L221.295 49a3.197 3.197 0 01-3.197 0l-12.709-7.337c-2.132-1.229-4.796.309-4.796 2.771v3.645c0 1.145.608 2.197 1.599 2.771l15.906 9.183a3.197 3.197 0 003.197 0l22.262-12.853c2.131-1.23 4.797.309 4.797 2.77v3.646a3.198 3.198 0 01-1.6 2.77l-25.459 14.699a3.207 3.207 0 01-3.197 0L192.639 56.36a3.197 3.197 0 01-1.599-2.77V5.824c0-2.461 2.664-4 4.797-2.769"/><path fill="#33ABFD" d="M237.201 39.813a3.201 3.201 0 001.6-2.771v-3.645c0-2.462-2.664-4-4.798-2.771l-12.708 7.338a3.213 3.213 0 01-1.6.429v11.029c.553 0 1.104-.145 1.6-.429l15.906-9.18zM221.295 26.937l25.458-14.699a3.196 3.196 0 001.599-2.77V5.824c0-2.461-2.664-4-4.795-2.769l-22.262 12.852a3.195 3.195 0 01-1.6.429v11.029c.553 0 1.105-.142 1.6-.428M246.753 56.357a3.2 3.2 0 001.601-2.771V49.94c0-2.463-2.666-4-4.797-2.771l-22.262 12.854a3.222 3.222 0 01-1.6.428V71.48c.553 0 1.104-.145 1.6-.43l25.458-14.693z"/></svg>