<svg version="1.1" id="Layer_1" xmlns="http://www.w3.org/2000/svg" xmlns:xlink="http://www.w3.org/1999/xlink" x="0" y="0" viewBox="0 0 639 644.6" xml:space="preserve"><style>.st0{fill:none}.st4,.st5{fill:none;stroke:#999;stroke-width:2;stroke-linecap:round;stroke-linejoin:round;stroke-miterlimit:10}.st5{stroke:#c7e8f9}.st6{fill:#fff}.st7{fill:#999}.st8{fill:#bae293}.st9{fill:none;stroke:#7cb73e;stroke-width:2;stroke-linecap:round;stroke-linejoin:round;stroke-miterlimit:10}.st10{fill:#fdcc38}.st12{fill:none;stroke:#0d83d4;stroke-width:2;stroke-linecap:round;stroke-linejoin:round;stroke-miterlimit:10}.st13{fill:#269ef1}.st14{opacity:.4}.st18{font-family:&apos;ArialMT&apos;}.st19{font-size:8.5118px}.st20{fill-rule:evenodd;clip-rule:evenodd}</style><path class="st0" d="M0 0h639v644.6H0z"/><path d="M638.8 456.4c-.4-.3 6 130.7-90 135-88.5 4-77.4 21.2-124 47.2-50 27.9-72.9-54.2-130-23.6-48 25.8-81.4 7.7-96-12.9-26-36.5-39.9-13.4-106.8-13.4C-3.8 588.7.9 453.9.9 453.9" fill="#fec"/><path d="M443 499.6c0 9.7-55.3 17.5-123.5 17.5S196 509.3 196 499.6s55.3-17.5 123.5-17.5S443 489.9 443 499.6" fill="#f4ddb5"/><path d="M638.8 455V340c0-152.7-4.9-155.9-89.3-156.2-81.4-.3-35.6-86.1-134.1-86C339.6 97.9 373.1 0 295.9 0c-79.8 0-33.2 65-166 65C-1.4 65 .9 206 .9 206v250" fill="#edf8ff"/><path class="st0" d="M1 455.1h637"/><path class="st4" d="M1 455.1h637"/><path class="st5" d="M81.9 223.4h14.2c1.4 0 2.5-1.1 2.5-2.5v-3.4c0-1.4-1.1-2.5-2.5-2.5H81.9c-1.4 0-2.5 1.1-2.5 2.5v3.4c0 1.3 1.1 2.5 2.5 2.5zM100.2 232.6h14.2c1.4 0 2.5-1.1 2.5-2.5v-3.4c0-1.4-1.1-2.5-2.5-2.5h-14.2c-1.4 0-2.5 1.1-2.5 2.5v3.4c0 1.4 1.2 2.5 2.5 2.5zM63.2 232.6h14.2c1.4 0 2.5-1.1 2.5-2.5v-3.4c0-1.4-1.1-2.5-2.5-2.5H63.2c-1.4 0-2.5 1.1-2.5 2.5v3.4c.1 1.4 1.2 2.5 2.5 2.5zM546.9 269.2h14.2c1.4 0 2.5-1.1 2.5-2.5v-3.4c0-1.4-1.1-2.5-2.5-2.5h-14.2c-1.4 0-2.5 1.1-2.5 2.5v3.4c0 1.4 1.2 2.5 2.5 2.5zM565.3 278.4h14.2c1.4 0 2.5-1.1 2.5-2.5v-3.4c0-1.4-1.1-2.5-2.5-2.5h-14.2c-1.4 0-2.5 1.1-2.5 2.5v3.4c0 1.4 1.1 2.5 2.5 2.5zM528.3 278.4h14.2c1.4 0 2.5-1.1 2.5-2.5v-3.4c0-1.4-1.1-2.5-2.5-2.5h-14.2c-1.4 0-2.5 1.1-2.5 2.5v3.4c0 1.4 1.1 2.5 2.5 2.5z"/><path class="st6" d="M406.3 496.4h-173c-19.3 0-35-15.7-35-35V68.3c0-19.3 15.7-35 35-35h173c19.3 0 35 15.7 35 35v393.1c0 19.3-15.6 35-35 35"/><path class="st4" d="M406.3 496.4h-173c-19.3 0-35-15.7-35-35V68.3c0-19.3 15.7-35 35-35h173c19.3 0 35 15.7 35 35v393.1c0 19.3-15.6 35-35 35z"/><path class="st7" d="M333.7 58.8h-26.3c-1.1 0-2-.9-2-2s.9-2 2-2h26.3c1.1 0 2 .9 2 2s-.9 2-2 2M297.2 56.7c0 1.6-1.3 2.9-2.9 2.9s-2.9-1.3-2.9-2.9 1.3-2.9 2.9-2.9c1.6 0 2.9 1.3 2.9 2.9"/><path class="st6" d="M338.2 469.1c0 9.3-7.5 16.8-16.8 16.8s-16.8-7.5-16.8-16.8 7.5-16.8 16.8-16.8 16.8 7.6 16.8 16.8"/><circle class="st4" cx="321.4" cy="469.1" r="16.8"/><path class="st8" d="M95.5 372.2c-5.6 0-10.1 4.5-10.1 10.1v38.5h20.2v-38.5c0-5.6-4.5-10.1-10.1-10.1"/><path class="st9" d="M95.5 372.2c-5.6 0-10.1 4.5-10.1 10.1v38.5h20.2v-38.5c0-5.6-4.5-10.1-10.1-10.1z"/><path class="st8" d="M116.4 396.5h-3.8c-3 0-5.5 2.5-5.5 5.5v18.8h14.8V402c0-3.1-2.4-5.5-5.5-5.5"/><path class="st9" d="M116.4 396.5h-3.8c-3 0-5.5 2.5-5.5 5.5v18.8h14.8V402c0-3.1-2.4-5.5-5.5-5.5z"/><path class="st0" d="M114.5 396.5v-6.8"/><path class="st9" d="M114.5 396.5v-6.8"/><path class="st0" d="M115.2 396.5l4-4.1"/><path class="st9" d="M115.2 396.5l4-4.1"/><path class="st0" d="M113.8 396.5l-4-4.1"/><path class="st9" d="M113.8 396.5l-4-4.1"/><path class="st0" d="M91.8 380.3v32.4"/><path class="st9" d="M91.8 380.3v32.4"/><path class="st0" d="M98.5 387v14.9"/><path class="st9" d="M98.5 387v14.9"/><path class="st0" d="M116.1 403.3v13.4"/><path class="st9" d="M116.1 403.3v13.4"/><path class="st10" d="M126.1 430.2h-47c-1.9 0-3.5-1.6-3.5-3.5v-2.5c0-1.9 1.6-3.5 3.5-3.5h47c1.9 0 3.5 1.6 3.5 3.5v2.5c0 2-1.6 3.5-3.5 3.5"/><path class="st4" d="M126.1 430.2h-47c-1.9 0-3.5-1.6-3.5-3.5v-2.5c0-1.9 1.6-3.5 3.5-3.5h47c1.9 0 3.5 1.6 3.5 3.5v2.5c0 2-1.6 3.5-3.5 3.5z"/><path class="st10" d="M109.4 453.2H95.7c-5.5 0-10.2-3.8-11.5-9.1L81 430.2h43.2l-3.3 13.9c-1.2 5.3-6 9.1-11.5 9.1"/><path class="st4" d="M109.4 453.2H95.7c-5.5 0-10.2-3.8-11.5-9.1L81 430.2h43.2l-3.3 13.9c-1.2 5.3-6 9.1-11.5 9.1z"/><path d="M541.5 418.3h1.9v-2.2c0-2.8-1.8-8.7-8.3-10.8l-20.5-5.9-.7-71c0-4.9-4-8.8-8.9-8.7-4.9 0-8.8 4-8.7 8.9l.7 71.1-20.5 6.3c-6.4 2.2-8 8.1-8 11v2.2h1.9l-3.8 35 4.4.5 3.8-35.5h2.3l-1.7 35.1 4.4.2 1.7-35.4h2.3l.3 35.2h4.4l-.3-35.2h2.2l.3 35.2h4.4l-.3-35.2h2.2l.3 35.2h4.4l-.3-35.2h2.2l.3 35.2h4.4l-.3-35.2h2.2l.3 35.2h4.4l-.3-35.2h2.2l.3 35.2h4.4l-.3-35.2h2.2l.3 35.2h4.4l-.3-35.2h2.3l2.4 35.3 4.4-.3-2.4-35.1h2.3l4.5 35.4 4.4-.6-4.2-35.5zm-40.8-89.9c0-2.4 1.9-4.4 4.4-4.4 2.4 0 4.4 1.9 4.4 4.4l.5 57.2-8.8.1-.5-57.3zm.6 61.7l8.8-.1.1 8.9h-8.8l-.1-8.8zm-27.9 24.4c.5-1.6 1.8-3.6 4.5-4.5l21.6-6.7 12.6-.1 21.7 6.3c2.8.9 4.1 2.9 4.7 4.5l-65.1.5z" fill="#c7e8f9"/><path class="st12" d="M548.5 373.4h-18.8c-12.9 0-23.4 10.5-23.4 23.4v11.5H572v-11.5c-.1-12.9-10.6-23.4-23.5-23.4z"/><path class="st13" d="M514.4 453.9h49.3c4.5 0 8.2-3.7 8.2-8.2v-43.4h-65.7v43.4c0 4.5 3.7 8.2 8.2 8.2"/><path class="st12" d="M514.4 453.9h49.3c4.5 0 8.2-3.7 8.2-8.2v-43.4h-65.7v43.4c0 4.5 3.7 8.2 8.2 8.2zM506.2 442h65.7"/><g class="st14"><defs><path id="SVGID_1_" d="M514.3 400.8h22.5v30.4h-22.5z"/></defs><clipPath id="SVGID_2_"><use xlink:href="#SVGID_1_" overflow="visible"/></clipPath><path d="M536.8 402.1v25.3c0 2.1-1.7 3.8-3.7 3.8-2.1 0-3.8-1.7-3.8-3.8v-14.7c0-1-.4-2-1.1-2.6-.7-.7-1.6-1.1-2.7-1.1-2.1 0-3.8 1.7-3.8 3.7v1.6c0 2.1-1.7 3.7-3.7 3.7-2.1 0-3.8-1.7-3.8-3.7v-9.8c0-2.1 1.7-3.7 3.8-3.7 1 0 2 .4 2.7 1.1s1.1 1.6 1.1 2.6v-1.3c0-1.3 1.1-2.4 2.4-2.4h2.7c1.3 0 2.4 1.1 2.4 2.4v-1.1c0-.7.6-1.3 1.3-1.3h4.8c.8 0 1.4.6 1.4 1.3" clip-path="url(#SVGID_2_)" fill="#fff"/></g><g class="st14"><path class="st6" d="M562.5 400.9v14.5c0 2.1-1.7 3.7-3.8 3.7s-3.7-1.7-3.7-3.7v-14.5c0-.7.6-1.3 1.3-1.3h4.8c.8 0 1.4.6 1.4 1.3"/></g><path d="M574 393.8h-69c-2 0-3.7 1.6-3.7 3.7v2.9c0 2 1.6 3.7 3.7 3.7h69c2 0 3.7-1.6 3.7-3.7v-2.9c-.1-2.1-1.7-3.7-3.7-3.7" fill="#0d83d4"/><path class="st13" d="M546.9 377.3h-14.7c-1.5 0-2.6-1.2-2.6-2.6v-2.1c0-1.5 1.2-2.6 2.6-2.6h14.7c1.5 0 2.6 1.2 2.6 2.6v2.1c.1 1.4-1.1 2.6-2.6 2.6"/><path class="st12" d="M546.9 377.3h-14.7c-1.5 0-2.6-1.2-2.6-2.6v-2.1c0-1.5 1.2-2.6 2.6-2.6h14.7c1.5 0 2.6 1.2 2.6 2.6v2.1c.1 1.4-1.1 2.6-2.6 2.6z"/><circle class="st5" cx="559.1" cy="332.5" r="4.1"/><circle class="st5" cx="569.2" cy="344.9" r="3.1"/><circle class="st5" cx="555.1" cy="353.1" r="2.7"/><path opacity=".23" fill="#434345" d="M219.8 81.8h200.1v358H219.8z"/><g><text transform="translate(304.285 93.34)" class="st18 st19">9:41 AM</text><path id="Battery_Icon_-_100_x25__7_" class="st20" d="M415.1 90.6c0 .7-.4 1.2-1.1 1.2v-2.4c.8-.1 1.1.5 1.1 1.2zm-1.3-2.4v4.6c0 .5-.4 1.1-1.1 1.1h-13.8c-.5 0-1.1-.4-1.1-1.1v-4.6c0-.5.4-1.1 1.1-1.1h13.8c.7.1 1.1.5 1.1 1.1zm-15-.6c-.4 0-.7.3-.7.7v4.6c0 .4.3.7.7.7h13.8c.4 0 .7-.3.7-.7v-4.6c0-.4-.3-.7-.7-.7h-13.8zm-.4.6v4.6c0 .3.1.4.4.4h13.8c.3 0 .4-.1.4-.4v-4.6c0-.3-.1-.4-.4-.4h-13.8c-.1 0-.4.2-.4.4z"/><text transform="translate(375.53 93.34)" class="st18 st19">100%</text><g id="Wi-Fi_Icon_Group_9_"><path id="Status_Bar_Icon_Frame_15_" class="st0" d="M251.3 85.4h9.9v9.9h-9.9z"/><path id="Wi-Fi_Icon_16_" d="M256.1 87.2c1.5 0 3 .5 4.2 1.6l-.5.7c-1.1-.9-2.3-1.4-3.7-1.4-1.4 0-2.7.4-3.7 1.4l-.5-.7c1.1-1.1 2.7-1.6 4.2-1.6zm0 2.1c.9 0 2 .4 2.8 1.1l-.5.7c-.7-.5-1.4-.8-2.2-.8-.8 0-1.6.3-2.2.8l-.5-.7c.6-.7 1.6-1.1 2.6-1.1zm0 2.2c.4 0 .9.1 1.4.5l-1.4 1.5-1.4-1.5c.5-.4.9-.5 1.4-.5z"/></g><path id="Cell_Signal_Indicator_-_5_Bars_5_" class="st20" d="M226.6 88.5c1.1 0 1.9.9 1.9 1.9s-.9 1.9-1.9 1.9c-1.1 0-1.9-.9-1.9-1.9s.9-1.9 1.9-1.9zm19.9 0c-1.1 0-1.9.9-1.9 1.9s.9 1.9 1.9 1.9c1.1 0 1.9-.9 1.9-1.9s-.8-1.9-1.9-1.9zm-5 0c-1.1 0-1.9.9-1.9 1.9s.9 1.9 1.9 1.9c1.1 0 1.9-.9 1.9-1.9s-.8-1.9-1.9-1.9zm-4.9 0c-1.1 0-1.9.9-1.9 1.9s.9 1.9 1.9 1.9c1.1 0 1.9-.9 1.9-1.9s-.8-1.9-1.9-1.9zm-5 0c-1.1 0-1.9.9-1.9 1.9s.9 1.9 1.9 1.9c1.1 0 1.9-.9 1.9-1.9s-.8-1.9-1.9-1.9z"/></g><path class="st4" d="M420.7 439.5l-201.6.7V80.9h201.6z"/></svg>