<svg xmlns="http://www.w3.org/2000/svg" viewBox="0 0 490.2 490.2"><path d="M402 1.1H87c-46.8 0-84.8 38-84.8 84.8v250.7c0 42.7 31.6 78 72.7 83.9v44.3c0 9.8 5.9 18.6 14.9 22.4 3 1.2 6.2 1.9 9.3 1.9 6.3 0 12.5-2.5 17.1-7.1l60.6-60.6H402c46.8 0 84.8-38 84.8-84.8V85.9c0-46.8-38-84.8-84.8-84.8zM112.8 264.8c-12.5 0-23.6-2.7-30.8-6.6l5.3-21.3c5.5 3.3 16.8 7.2 25.6 7.2 9 0 12.7-3.1 12.7-8 .1-4.8-2.9-7.2-14-10.9-19.7-6.6-27.3-17.4-27.1-28.7 0-17.8 15.2-31.2 38.8-31.2 11.1 0 21.1 2.5 26.9 5.5l-5.3 20.5c-4.3-2.3-12.5-5.5-20.7-5.5-7.2 0-11.3 2.9-11.3 7.8 0 4.5 3.7 6.8 15.4 10.9 18.1 6.2 25.8 15.4 25.9 29.5 0 17.8-14 30.8-41.4 30.8zm203.8-1h-28.9V212c0-13.9-4.5-21.9-14.1-21.9-6.8 0-11.7 4.7-13.7 10.3-.8 2.1-1.2 5.3-1.2 7.6v55.8h-28.9v-53.5c0-12.1-4.3-20.3-13.7-20.3-7.6 0-12.1 5.9-13.8 10.7-1 2.3-1.2 5.1-1.2 7.4v55.6h-28.9v-65c0-11.9-.4-22-.8-30.4l25.1.2 1.4 12.9h.6c4.1-6 12.5-15 28.9-15 12.3 0 22 6.2 26.1 16.2h.4c3.5-4.9 7.8-8.8 12.3-11.5 5.3-3.1 11.1-4.7 18.2-4.7 18.3 0 32.2 12.9 32.2 41.3v56.1zm48.6 1c-12.5 0-23.6-2.7-30.8-6.6l5.3-21.3c5.5 3.3 16.8 7.2 25.6 7.2 9 0 12.7-3.1 12.7-8 .1-4.8-2.9-7.2-14-10.9-19.7-6.6-27.3-17.4-27.1-28.7 0-17.8 15.2-31.2 38.8-31.2 11.1 0 21.1 2.5 26.9 5.5l-5.3 20.5c-4.3-2.3-12.5-5.5-20.7-5.5-7.2 0-11.3 2.9-11.3 7.8 0 4.5 3.7 6.8 15.4 10.9 18.1 6.2 25.8 15.4 25.9 29.5 0 17.8-14 30.8-41.4 30.8z" opacity=".9" fill="#585858"/></svg>