<svg version="1.1" id="Layer_1" xmlns="http://www.w3.org/2000/svg" x="0" y="0" viewBox="0 0 748 409" xml:space="preserve"><style>.st2{fill:#fff}.st3{fill:#dbf8ff}.st4{fill:#33abfd}.st5{fill:#46f9d7}.st6{fill:#434345}</style><path d="M749 407.5c0 .8-.5 1.4-1.1 1.7-.2.1-.5.2-.8.2H371.7v-.2h-263v.2H.6c-.3 0-.5-.1-.7-.2-.5-.2-.9-.8-.9-1.3 0-.8.7-1.5 1.6-1.5h34.7c-.2-.3-.4-.6-.4-1V255.8c0-.8.7-1.5 1.6-1.5h73.8c.9 0 1.6.7 1.6 1.5v44.5c.3-.2.6-.4 1-.4h25.5c.2-.8.4-1.7.7-2.5.2-.4.4-.9.6-1.3.2-.5.5-.9.8-1.3 1.2-1.7 2.8-3.2 4.8-4.3 6.8-3.8 15.6-1.5 19.6 5 .8 1.4 1.4 2.8 1.7 4.3h4.9v-19.5c-19.6-1.1-35.2-16.8-35.2-35.9 0-19.8 16.8-35.9 37.4-35.9s37.4 16.1 37.4 35.9c0 19.1-15.6 34.8-35.2 35.9v66.3l15.3-25.5c-10.8-7.2-14.3-21.4-7.6-32.5 7.1-11.8 22.8-15.8 35-9 6.2 3.4 10.3 9 12 15.1.1.4.2.9.3 1.3.1.4.2.9.2 1.3.3 1.7.3 3.4.2 5.1 0 .4-.1.9-.1 1.3s-.1.9-.2 1.3c-.5 2.8-1.5 5.7-3.1 8.3-4.4 7.4-12.2 11.7-20.5 12.3-.5 0-1 0-1.5.1h-.3c-3.2 0-6.5-.6-9.6-1.8-.4-.2-.9-.3-1.3-.5l-1.3 2.1-17.7 29.5v50.8c0 .2-.1.4-.1.6h8.4c.4 0 .8.2 1.1.4h25.1c-.2-.3-.3-.6-.3-1v-56.5h-8.5c-1.2 0-2.1-.9-2.1-2.1v-9.6c0-.8.5-1.5 1.2-1.8l16.9-7.7 2.6-1.2 21.3-9.7 1.3-.6 1.3-.6 34.6-15.9c.6-.3 1.3-.3 1.8 0l77.8 35.6c.8.3 1.4 1 1.4 1.9v10c-.2 1-1.1 1.7-2.1 1.7h-8.5V366c1.4-4.4 4.5-8.1 8.6-10.4h.2c.8-.4 1.6-.8 2.4-1.1l.1-.1h.1c1.2-.4 2.4-.7 3.6-.9.8-.1 1.7-.2 2.6-.2h.5c1.1 0 2.1.1 3.2.3 1.7.3 3.3.8 4.8 1.4v-31.3c0-.8.7-1.5 1.6-1.5h50.8c-.1-.2-.2-.5-.2-.8V271c0-.8.7-1.5 1.6-1.5h56.9c.9 0 1.6.7 1.6 1.5v134.6h9.3c-.2-.3-.3-.6-.3-1V253.2c0-1.1.9-1.9 2-1.9h4.2c-.2-.3-.3-.6-.3-1V236c0-1.1.9-1.9 2-1.9h101c1.1 0 2 .9 2 1.9v14.3c0 .4-.1.7-.3 1h4.2c1.1 0 2 .9 2 1.9v151.5c0 .3-.1.7-.3 1H642c-.2-.3-.3-.6-.3-1v-20.1c-.5 0-.9-.1-1.4-.2-3.9-.5-7.5-2-10.5-4.1-1.1-.8-2.2-1.7-3.1-2.6-2.8-2.7-4.8-6.1-5.9-9.8-.1-.5-.3-.9-.4-1.4-.3-1.5-.5-3.1-.5-4.8v-.7c0-.8.1-1.6.2-2.3.1-1.1.4-2.1.7-3.1.1-.3.2-.6.3-1 .3-.8.6-1.7 1-2.5 2-4.2 5.4-7.8 9.6-10.2 2.1-1.2 4.4-2.1 6.9-2.6l1.8-.3c.8-.1 1.7-.2 2.6-.2h.8c4.4 0 8.5 1.2 12.1 3.2.5.2.9.5 1.3.8.5.3.9.6 1.3.9 2.3 1.7 4.2 3.9 5.8 6.3.2.3.3.6.5.8l.9 1.8c.8 1.8 1.4 3.7 1.7 5.7.2 1.1.3 2.2.3 3.4 0 1.1-.1 2.3-.3 3.4-.1.7-.2 1.3-.4 2-.2.9-.5 1.8-.8 2.6-.4 1-.8 2-1.4 2.9-1.5 2.8-3.7 5.2-6.2 7.1-.4.3-.9.6-1.3.9-.4.3-.8.5-1.3.8-2.2 1.3-4.6 2.2-7.2 2.7-.9.2-1.9.3-2.9.4v20.1c0 .3-.1.7-.3 1H674v-67.8c-2.3-.1-4.6-.4-6.9-.9-.9-.2-1.8-.4-2.6-.7-.5-.1-1-.3-1.5-.5-1.6-.6-3.2-1.2-4.7-2-.1 0-.1 0-.2-.1l-1.2-.6c-.4-.2-.9-.5-1.3-.8-4.1-2.5-7.6-5.6-10.5-9.3-.3-.4-.7-.9-1-1.3-.3-.4-.6-.9-.9-1.3-3.6-5.6-5.7-12.2-5.7-19.3 0-20.3 17.2-36.8 38.3-36.8 13.9 0 26.1 7.2 32.8 17.9.3.4.5.9.8 1.3.2.3.3.5.5.8.1.2.2.3.2.5.4.7.7 1.4 1 2.2 1.7 3.8 2.7 7.9 2.9 12.3V301.8c-.1 4.8-1.1 9.3-2.9 13.5-.1.3-.3.6-.4.9-.4.9-.9 1.8-1.3 2.6-.3.5-.5.9-.8 1.4-3.2 5.1-7.6 9.3-12.9 12.4-.3.2-.7.4-1.1.6-.5.3-1 .5-1.5.8-1.4.7-2.8 1.3-4.3 1.8-2 .7-4.1 1.2-6.3 1.6-.9.1-1.7.3-2.6.3-.7.1-1.4.1-2 .2V390l2-3.2.1-.2 1.5-2.4 1.1-1.9 6.3-10.4c-.8-.6-1.6-1.3-2.2-2.1-.7-.8-1.3-1.7-1.8-2.6-.5-.9-.8-1.8-1.1-2.8-.3-1.2-.5-2.4-.5-3.7 0-2.4.7-4.8 1.9-7 .2-.4.4-.7.7-1 .7-1 1.5-1.8 2.5-2.6 1.5-1.2 3.2-2.1 5-2.7.8-.3 1.7-.5 2.6-.6 3.1-.4 6.3.1 9.2 1.7.8.4 1.5.9 2.2 1.5.5.4 1 .9 1.5 1.4.3.4.7.8 1 1.2.7.9 1.2 1.9 1.6 3 .2.5.4 1 .5 1.5.8 2.9.6 5.9-.5 8.7-.2.4-.4.9-.6 1.3-.1.2-.2.4-.4.6-.4.7-.9 1.4-1.4 2-.1.1-.2.2-.2.3-1.9 2.1-4.4 3.6-7.2 4.3-1.2.3-2.5.5-3.8.5-.6 0-1.3 0-1.9-.1-.9-.1-1.8-.3-2.6-.6-.3-.1-.7-.2-1-.3l-6.2 10.4-1.6 2.6-1.9 3.1-2.6 4.3-1.6 2.7-.4.6-.1.1v8.1h69c1.1-.1 2 .7 2 1.8z" opacity=".3" fill="#33abfd"/><path fill="#cfefff" d="M657 283.4h61.9v126H657z"/><path class="st2" d="M674.7 398.1h26.5v11.3h-26.5zM404.7 370.7v38.7h-33.1v-.2h-50.5v-38.5l27.6-12.6 14.2-6.5 3.4 1.6 38.4 17.5z"/><path class="st3" d="M333.1 372.6H353v11.5h-19.9zM372.9 372.6h19.9v11.5h-19.9z"/><path class="st2" d="M165.6 307.6v101.6h-57v.2H90V307.6h75.6z"/><path class="st3" d="M157.7 315.2v94h-49v.2H98v-94.2h59.7z"/><path class="st2" d="M478.8 372h27v37.4h-27z"/><path class="st4" d="M532.8 379.4h11.6v7.4h-11.6zM486.5 379.4h11.6v7.4h-11.6z"/><path class="st2" d="M194.7 296.1h47.7v113.1h-47.7z"/><path class="st2" d="M238.5 340.1h47.7v69.1h-47.7z"/><path class="st4" d="M238.5 340.1h47.7v7.8h-47.7zM194.7 296.1h47.7v7.7h-47.7zM314.5 366.7l48.4-22.2 48.4 22.2v5.9h-6.6v-1.9l-41.8-19.1-41.8 19.1v1.9h-6.6v-5.9zM94 296.1h67.6v11.5H94z"/><path class="st2" d="M569.4 358h7.7v51.4h-7.7zM471.1 338.6h115.6v10.8H471.1zM604 321.6h53v87.8h-53z"/><ellipse class="st5" cx="428.6" cy="308.9" rx="22" ry="21.1"/><ellipse class="st5" cx="408.7" cy="344" rx="14.6" ry="14"/><ellipse class="st5" cx="441.7" cy="344.8" rx="7.6" ry="7.3"/><ellipse class="st5" cx="294.2" cy="380.3" rx="14.6" ry="14"/><ellipse class="st5" cx="68.2" cy="380.3" rx="14.6" ry="14"/><ellipse class="st5" cx="31.9" cy="379.6" rx="8.4" ry="8.1"/><ellipse class="st5" cx="46.5" cy="339.6" rx="24.3" ry="23.4"/><path class="st6" d="M243.7 296.1v42.1c0 .2-.1.4-.2.6-.2.4-.6.7-1.1.7s-.9-.3-1.1-.7c-.1-.2-.2-.4-.2-.6v-40.8H196v111.8h-2.5V296.1c0-.7.6-1.3 1.3-1.3h47.7c.7 0 1.2.6 1.2 1.3zM295.5 380.3v28.9H293v-28.9c0-.7.6-1.3 1.3-1.3.6 0 1.2.6 1.2 1.3z"/><path class="st6" d="M294.2 395.6c-8.8 0-15.9-6.9-15.9-15.3 0-8.5 7.1-15.3 15.9-15.3s15.9 6.9 15.9 15.3-7.2 15.3-15.9 15.3zm0-28c-7.3 0-13.3 5.7-13.3 12.7s6 12.7 13.3 12.7c7.3 0 13.3-5.7 13.3-12.7s-6-12.7-13.3-12.7zM240.4 305.1h-43.8c-.7 0-1.3-.6-1.3-1.3s.6-1.3 1.3-1.3h43.8c.7 0 1.3.6 1.3 1.3s-.5 1.3-1.3 1.3z"/><path class="st6" d="M287.5 393v16.2H285V393v-.3c.1-.5.5-.8.9-1 .1 0 .2-.1.4-.1.6 0 1.1.4 1.3 1-.1.2-.1.3-.1.4zM287.5 340.1v27.7c-.1.6-.6 1-1.3 1-.1 0-.3 0-.4-.1-.5-.1-.8-.5-.9-1V341.3h-45.1v67.9h-2.5V340.1c0-.7.6-1.3 1.3-1.3h47.7c.6 0 1.2.6 1.2 1.3z"/><path class="st6" d="M284.2 349.1h-43.8c-.7 0-1.3-.6-1.3-1.3s.6-1.3 1.3-1.3h43.8c.7 0 1.3.6 1.3 1.3s-.6 1.3-1.3 1.3zM218.6 316.5c-.7 0-1.3-.6-1.3-1.3v-3.8c0-.7.6-1.3 1.3-1.3s1.3.6 1.3 1.3v3.8c0 .8-.6 1.3-1.3 1.3zM230.5 316.5c-.7 0-1.3-.6-1.3-1.3v-3.8c0-.7.6-1.3 1.3-1.3s1.3.6 1.3 1.3v3.8c0 .8-.6 1.3-1.3 1.3zM206.6 316.5c-.7 0-1.3-.6-1.3-1.3v-3.8c0-.7.6-1.3 1.3-1.3s1.3.6 1.3 1.3v3.8c0 .8-.5 1.3-1.3 1.3zM218.6 331.8c-.7 0-1.3-.6-1.3-1.3v-3.8c0-.7.6-1.3 1.3-1.3s1.3.6 1.3 1.3v3.8c0 .8-.6 1.3-1.3 1.3zM230.5 331.8c-.7 0-1.3-.6-1.3-1.3v-3.8c0-.7.6-1.3 1.3-1.3s1.3.6 1.3 1.3v3.8c0 .8-.6 1.3-1.3 1.3zM206.6 331.8c-.7 0-1.3-.6-1.3-1.3v-3.8c0-.7.6-1.3 1.3-1.3s1.3.6 1.3 1.3v3.8c0 .8-.5 1.3-1.3 1.3zM218.6 347.1c-.7 0-1.3-.6-1.3-1.3V342c0-.7.6-1.3 1.3-1.3s1.3.6 1.3 1.3v3.8c0 .8-.6 1.3-1.3 1.3zM230.5 347.1c-.7 0-1.3-.6-1.3-1.3V342c0-.7.6-1.3 1.3-1.3s1.3.6 1.3 1.3v3.8c0 .8-.6 1.3-1.3 1.3zM206.6 347.1c-.7 0-1.3-.6-1.3-1.3V342c0-.7.6-1.3 1.3-1.3s1.3.6 1.3 1.3v3.8c0 .8-.5 1.3-1.3 1.3zM262.3 362.4c-.7 0-1.3-.6-1.3-1.3v-3.8c0-.7.6-1.3 1.3-1.3s1.3.6 1.3 1.3v3.8c0 .8-.6 1.3-1.3 1.3zM274.3 362.4c-.7 0-1.3-.6-1.3-1.3v-3.8c0-.7.6-1.3 1.3-1.3s1.3.6 1.3 1.3v3.8c0 .8-.6 1.3-1.3 1.3zM250.4 362.4c-.7 0-1.3-.6-1.3-1.3v-3.8c0-.7.6-1.3 1.3-1.3s1.3.6 1.3 1.3v3.8c0 .8-.6 1.3-1.3 1.3zM262.3 377.8c-.7 0-1.3-.6-1.3-1.3v-3.8c0-.7.6-1.3 1.3-1.3s1.3.6 1.3 1.3v3.8c0 .7-.6 1.3-1.3 1.3zM274.3 377.8c-.7 0-1.3-.6-1.3-1.3v-3.8c0-.7.6-1.3 1.3-1.3s1.3.6 1.3 1.3v3.8c0 .7-.6 1.3-1.3 1.3zM250.4 377.8c-.7 0-1.3-.6-1.3-1.3v-3.8c0-.7.6-1.3 1.3-1.3s1.3.6 1.3 1.3v3.8c0 .7-.6 1.3-1.3 1.3zM262.3 393.1c-.7 0-1.3-.6-1.3-1.3V388c0-.7.6-1.3 1.3-1.3s1.3.6 1.3 1.3v3.8c0 .7-.6 1.3-1.3 1.3zM263.6 401.3v7.8h-2.5v-7.8c0-.2 0-.4.1-.6.2-.4.7-.7 1.2-.7s.9.3 1.1.7c.1.2.1.4.1.6zM219.9 401.3v7.8h-2.5v-7.8c0-.2 0-.4.1-.6.2-.4.7-.7 1.2-.7s.9.3 1.1.7c0 .2.1.4.1.6zM274.3 393.1c-.7 0-1.3-.6-1.3-1.3V388c0-.7.6-1.3 1.3-1.3s1.3.6 1.3 1.3v3.8c0 .7-.6 1.3-1.3 1.3zM250.4 393.1c-.7 0-1.3-.6-1.3-1.3V388c0-.7.6-1.3 1.3-1.3s1.3.6 1.3 1.3v3.8c0 .7-.6 1.3-1.3 1.3zM218.6 362.4c-.7 0-1.3-.6-1.3-1.3v-3.8c0-.7.6-1.3 1.3-1.3s1.3.6 1.3 1.3v3.8c0 .8-.6 1.3-1.3 1.3zM230.5 362.4c-.7 0-1.3-.6-1.3-1.3v-3.8c0-.7.6-1.3 1.3-1.3s1.3.6 1.3 1.3v3.8c0 .8-.6 1.3-1.3 1.3zM206.6 362.4c-.7 0-1.3-.6-1.3-1.3v-3.8c0-.7.6-1.3 1.3-1.3s1.3.6 1.3 1.3v3.8c0 .8-.5 1.3-1.3 1.3zM218.6 377.8c-.7 0-1.3-.6-1.3-1.3v-3.8c0-.7.6-1.3 1.3-1.3s1.3.6 1.3 1.3v3.8c0 .7-.6 1.3-1.3 1.3zM230.5 377.8c-.7 0-1.3-.6-1.3-1.3v-3.8c0-.7.6-1.3 1.3-1.3s1.3.6 1.3 1.3v3.8c0 .7-.6 1.3-1.3 1.3zM206.6 377.8c-.7 0-1.3-.6-1.3-1.3v-3.8c0-.7.6-1.3 1.3-1.3s1.3.6 1.3 1.3v3.8c0 .7-.5 1.3-1.3 1.3zM218.6 393.1c-.7 0-1.3-.6-1.3-1.3V388c0-.7.6-1.3 1.3-1.3s1.3.6 1.3 1.3v3.8c0 .7-.6 1.3-1.3 1.3zM230.5 393.1c-.7 0-1.3-.6-1.3-1.3V388c0-.7.6-1.3 1.3-1.3s1.3.6 1.3 1.3v3.8c0 .7-.6 1.3-1.3 1.3zM206.6 393.1c-.7 0-1.3-.6-1.3-1.3V388c0-.7.6-1.3 1.3-1.3s1.3.6 1.3 1.3v3.8c0 .7-.5 1.3-1.3 1.3zM294.2 388.6c-4.7 0-8.6-3.7-8.6-8.3 0-.7.6-1.3 1.3-1.3s1.3.6 1.3 1.3c0 3.1 2.7 5.7 6 5.7s6-2.6 6-5.7c0-.7.6-1.3 1.3-1.3s1.3.6 1.3 1.3c0 4.6-3.9 8.3-8.6 8.3z"/><path class="st6" d="M231.8 399.4V409.2h-2.5v-8.5H208v8.5h-2.5V399.4c0-.7.6-1.3 1.3-1.3h23.9c.5 0 1.1.6 1.1 1.3zM275.6 399.4V409.2H273v-8.5h-21.3v8.5h-2.5V399.4c0-.7.6-1.3 1.3-1.3h23.9c.6 0 1.2.6 1.2 1.3z"/><g><path class="st6" d="M406 370.7v38.7h-2.5v-.2-37.6l-23.6-10.8-16.1-7.4-.8-.4-2.8 1.3h-.1l-.1.1-2.4 1.1h-.2l-8.6 3.9-26.2 12V409.2h-2.5v-38.5c0-.5.3-1 .8-1.2l28.1-12.9 13.7-6.3c.3-.2.7-.2 1.1 0l6.5 3 35.2 16.1c.2.3.5.8.5 1.3z"/><path class="st6" d="M411.3 373.9h-6.6c-.7 0-1.3-.6-1.3-1.3v-1.1L362.9 353l-40.5 18.5v1.1c0 .7-.6 1.3-1.3 1.3h-6.6c-.7 0-1.3-.6-1.3-1.3v-5.9c0-.6.4-1 .9-1.2l48.3-22.1c.3-.2.7-.2 1.1 0l48.4 22.2c.5.2.8.7.8 1.2v5.9c-.1.6-.6 1.2-1.4 1.2zm-5.3-2.6h4v-3.8L362.9 346l-47.1 21.6v3.8h4v-.6c0-.5.3-1 .8-1.2l41.8-19.1c.3-.2.7-.2 1.1 0l41.8 19.1c.5.2.8.7.8 1.2l-.1.5zM376.9 393.1H349c-.7 0-1.3-.6-1.3-1.3s.6-1.3 1.3-1.3h27.9c.7 0 1.3.6 1.3 1.3s-.6 1.3-1.3 1.3z"/><path class="st6" d="M374.2 393.7v15.7h-2.5v-.2-15.5c0-.2.1-.4.2-.6.2-.4.6-.7 1.1-.7s.9.3 1.1.7c0 .1.1.3.1.6zM354.3 393.7v15.5h-2.5v-15.5c0-.2.1-.4.2-.6.2-.4.7-.7 1.1-.7s.9.3 1.1.7c0 .1.1.3.1.6zM353 385.4h-19.9c-.7 0-1.3-.6-1.3-1.3v-11.5c0-.7.6-1.3 1.3-1.3H353c.7 0 1.3.6 1.3 1.3v11.5c0 .7-.6 1.3-1.3 1.3zm-18.6-2.6h17.3v-8.9h-17.3v8.9zM392.8 385.4h-19.9c-.7 0-1.3-.6-1.3-1.3v-11.5c0-.7.6-1.3 1.3-1.3h19.9c.7 0 1.3.6 1.3 1.3v11.5c0 .7-.6 1.3-1.3 1.3zm-18.6-2.6h17.3v-8.9h-17.3v8.9zM429.9 308.9v100.5h-2.5v-.2-100.3c0-.7.6-1.3 1.3-1.3.6 0 1.2.5 1.2 1.3z"/><path class="st6" d="M428.6 331.2c-12.8 0-23.2-10-23.2-22.3s10.4-22.3 23.2-22.3 23.2 10 23.2 22.3-10.4 22.3-23.2 22.3zm0-42.1c-11.4 0-20.6 8.9-20.6 19.7s9.2 19.7 20.6 19.7c11.4 0 20.6-8.9 20.6-19.7s-9.3-19.7-20.6-19.7z"/><path class="st6" d="M428.6 320.7c-6.8 0-12.2-5.3-12.2-11.8 0-.7.6-1.3 1.3-1.3s1.3.6 1.3 1.3c0 5.1 4.3 9.2 9.6 9.2s9.6-4.1 9.6-9.2c0-.7.6-1.3 1.3-1.3s1.3.6 1.3 1.3c0 6.5-5.5 11.8-12.2 11.8zM428.6 378.4c-.4 0-.9-.2-1.1-.6l-19.9-33.1c-.4-.6-.2-1.4.5-1.8.6-.4 1.4-.2 1.8.5l19.9 33.1c.4.6.2 1.4-.5 1.8-.3 0-.5.1-.7.1z"/><path class="st6" d="M408.7 359.3c-5.5 0-10.8-2.7-13.8-7.6-2.1-3.5-2.7-7.6-1.6-11.5 1.1-4 3.7-7.4 7.5-9.5 7.6-4.2 17.3-1.7 21.7 5.6 2.1 3.5 2.7 7.6 1.6 11.5-1.1 4-3.7 7.4-7.5 9.4-2.5 1.4-5.2 2.1-7.9 2.1zm0-28.1c-2.3 0-4.5.6-6.6 1.7-3.1 1.7-5.3 4.5-6.2 7.9-.9 3.2-.4 6.6 1.4 9.5 3.7 6.1 11.8 8.2 18.2 4.7 3.1-1.7 5.3-4.5 6.2-7.9.9-3.2.4-6.6-1.4-9.5-2.5-4.1-7-6.4-11.6-6.4z"/><path class="st6" d="M408.7 352.3c-3 0-5.9-1.5-7.5-4.1-.4-.6-.2-1.4.5-1.8.6-.4 1.4-.2 1.8.5 1.6 2.8 5.3 3.7 8.2 2.1 1.4-.8 2.4-2 2.8-3.5.4-1.4.2-3-.6-4.2-.4-.6-.2-1.4.5-1.8.6-.4 1.4-.2 1.8.5 1.1 1.9 1.5 4.1.9 6.3s-2 4-4 5.1c-1.5.5-2.9.9-4.4.9zM428.8 367.7c-.2 0-.5-.1-.7-.2-.6-.4-.8-1.2-.5-1.8l12.9-21.5c.4-.6 1.2-.8 1.8-.5.6.4.8 1.2.5 1.8l-12.9 21.6c-.3.4-.7.6-1.1.6z"/><path class="st6" d="M441.7 353.4c-1.5 0-3-.4-4.4-1.1-2.1-1.2-3.6-3-4.2-5.3-.6-2.2-.3-4.5.9-6.5 2.4-4.1 7.9-5.5 12.1-3.1 2.1 1.2 3.6 3 4.2 5.3.6 2.2.3 4.5-.9 6.5-1.7 2.7-4.6 4.2-7.7 4.2zm0-14.5c-2.2 0-4.3 1.1-5.5 3-.8 1.4-1 2.9-.6 4.4.4 1.6 1.5 2.9 2.9 3.7 3 1.7 6.9.7 8.6-2.2.8-1.4 1-2.9.6-4.5s-1.5-2.9-2.9-3.7c-.9-.5-2-.7-3.1-.7zm-6.6 2.3z"/><ellipse class="st6" cx="358.1" cy="403.2" rx="2" ry="1.9"/><ellipse class="st6" cx="396.8" cy="395.6" rx="2" ry="1.9"/><ellipse class="st6" cx="396.8" cy="403.2" rx="2" ry="1.9"/><ellipse class="st6" cx="388.8" cy="395.6" rx="2" ry="1.9"/><ellipse class="st6" cx="388.8" cy="403.2" rx="2" ry="1.9"/><ellipse class="st6" cx="380.8" cy="403.2" rx="2" ry="1.9"/></g><g><path class="st6" d="M166.9 307.6V409.2h-2.5V308.9h-73v100.5H89v-.2V307.6c0-.7.6-1.3 1.3-1.3h75.6c.4 0 1 .6 1 1.3z"/><path class="st6" d="M159 315.2v94h-2.5V316.6H99.3V409.4h-2.5v-.2-93.9c0-.7.6-1.3 1.3-1.3h59.7c.6-.1 1.2.5 1.2 1.2z"/><path class="st6" d="M111.2 317.2v92h-2.5v-92c0-.2 0-.4.2-.6.2-.4.6-.7 1.1-.7s.9.3 1.2.7v.6zM123.2 317.2v92h-2.5v-92c0-.2 0-.4.1-.6.2-.4.7-.7 1.2-.7s.9.3 1.2.7c-.1.1 0 .3 0 .6zM135.1 317.2v92h-2.5v-92c0-.2 0-.4.2-.6.2-.4.6-.7 1.1-.7s.9.3 1.2.7c-.1.1 0 .3 0 .6zM147 317.2v92h-2.5v-92c0-.2 0-.4.2-.6.2-.4.6-.7 1.1-.7s.9.3 1.2.7v.6z"/><path class="st6" d="M155.7 328H100c-.7 0-1.3-.6-1.3-1.3s.6-1.3 1.3-1.3h55.7c.7 0 1.3.6 1.3 1.3s-.6 1.3-1.3 1.3zM155.7 339.5H100c-.7 0-1.3-.6-1.3-1.3s.6-1.3 1.3-1.3h55.7c.7 0 1.3.6 1.3 1.3s-.6 1.3-1.3 1.3zM155.7 351H100c-.7 0-1.3-.6-1.3-1.3s.6-1.3 1.3-1.3h55.7c.7 0 1.3.6 1.3 1.3s-.6 1.3-1.3 1.3zM155.7 362.4H100c-.7 0-1.3-.6-1.3-1.3s.6-1.3 1.3-1.3h55.7c.7 0 1.3.6 1.3 1.3s-.6 1.3-1.3 1.3zM155.7 373.9H100c-.7 0-1.3-.6-1.3-1.3s.6-1.3 1.3-1.3h55.7c.7 0 1.3.6 1.3 1.3s-.6 1.3-1.3 1.3zM155.7 385.4H100c-.7 0-1.3-.6-1.3-1.3s.6-1.3 1.3-1.3h55.7c.7 0 1.3.6 1.3 1.3s-.6 1.3-1.3 1.3zM155.7 396.9H100c-.7 0-1.3-.6-1.3-1.3s.6-1.3 1.3-1.3h55.7c.7 0 1.3.6 1.3 1.3s-.6 1.3-1.3 1.3zM161.6 307c-.7 0-1.3-.6-1.3-1.3v-8.3h-65v8.3c0 .7-.6 1.3-1.3 1.3s-1.3-.6-1.3-1.3v-9.6c0-.7.6-1.3 1.3-1.3h67.6c.7 0 1.3.6 1.3 1.3v9.6c0 .7-.5 1.3-1.3 1.3zM69.5 380.3V409.4H67v-.2-28.9c0-.7.6-1.3 1.3-1.3.6 0 1.2.6 1.2 1.3z"/><path class="st6" d="M68.2 395.6c-8.8 0-15.9-6.9-15.9-15.3 0-8.5 7.1-15.3 15.9-15.3s15.9 6.9 15.9 15.3-7.2 15.3-15.9 15.3zm0-28c-7.3 0-13.3 5.7-13.3 12.7s6 12.7 13.3 12.7 13.3-5.7 13.3-12.7-6-12.7-13.3-12.7z"/><path class="st6" d="M68.2 388.6c-4.7 0-8.6-3.7-8.6-8.3 0-.7.6-1.3 1.3-1.3s1.3.6 1.3 1.3c0 3.1 2.7 5.7 6 5.7s6-2.6 6-5.7c0-.7.6-1.3 1.3-1.3s1.3.6 1.3 1.3c0 4.6-3.9 8.3-8.6 8.3z"/></g><g><path class="st6" d="M702.5 398.1v10.6c0 .2 0 .3-.1.5 0 .1 0 .1-.1.2H700c0-.1-.1-.1-.1-.2-.1-.1-.1-.3-.1-.5v-9.3H676v9.3c0 .2 0 .3-.1.5 0 .1 0 .1-.1.2h-2.3c0-.1-.1-.1-.1-.2-.1-.1-.1-.3-.1-.5v-10.6c0-.5.2-.9.6-1.1.2-.1.4-.2.7-.2h26.5c.9 0 1.4.6 1.4 1.3zM645.1 398.1v10.6c0 .2 0 .3-.1.5 0 .1 0 .1-.1.2h-2.3c0-.1-.1-.1-.1-.2-.1-.1-.1-.3-.1-.5v-9.3h-23.9v9.3c0 .2 0 .3-.1.5 0 .1 0 .1-.1.2H616c0-.1-.1-.1-.1-.2-.1-.1-.1-.3-.1-.5v-10.6c0-.7.6-1.3 1.3-1.3h26.5c.9 0 1.5.6 1.5 1.3zM667.2 285.5v123.3c0 .2 0 .3-.1.5 0 .1 0 .1-.1.2h-2.3c0-.1-.1-.1-.1-.2-.1-.1-.1-.3-.1-.5V285.5c0-.3.1-.6.3-.8.2-.3.6-.5 1-.5s.8.2 1 .5c.3.2.4.5.4.8z"/><path class="st6" d="M720.2 283.4v125.4c0 .2 0 .3-.1.5 0 .1 0 .1-.1.2h-2.3c0-.1-.1-.1-.1-.2-.1-.1-.1-.3-.1-.5V284.7h-59.3v124.1c0 .2 0 .3-.1.5 0 .1 0 .1-.1.2h-2.3c0-.1-.1-.1-.1-.2-.1-.1-.1-.3-.1-.5V283.4c0-.7.6-1.3 1.3-1.3h61.9c1 0 1.5.5 1.5 1.3z"/><path class="st6" d="M656.1 321.6c0 .4-.1.7-.4.9-.2.2-.6.4-.9.4h-49.5v85.8c0 .2 0 .3-.1.5 0 .1 0 .1-.1.2h-2.3c0-.1-.1-.1-.1-.2-.1-.1-.1-.3-.1-.5v-87.1c0-.7.6-1.3 1.3-1.3h50.8c.4 0 .7.2.9.4s.5.6.5.9zM716.7 301.7h-57.5c-.7 0-1.3-.6-1.3-1.3s.6-1.3 1.3-1.3h57.5c.7 0 1.3.6 1.3 1.3s-.6 1.3-1.3 1.3zM716.7 318.7h-57.5c-.7 0-1.3-.6-1.3-1.3s.6-1.3 1.3-1.3h57.5c.7 0 1.3.6 1.3 1.3s-.6 1.3-1.3 1.3zM716.7 335.7h-57.5c-.7 0-1.3-.6-1.3-1.3s.6-1.3 1.3-1.3h57.5c.7 0 1.3.6 1.3 1.3s-.6 1.3-1.3 1.3zM716.7 352.7h-57.5c-.7 0-1.3-.6-1.3-1.3s.6-1.3 1.3-1.3h57.5c.7 0 1.3.6 1.3 1.3s-.6 1.3-1.3 1.3zM716.7 369.7h-57.5c-.7 0-1.3-.6-1.3-1.3s.6-1.3 1.3-1.3h57.5c.7 0 1.3.6 1.3 1.3s-.6 1.3-1.3 1.3zM716.7 386.7h-57.5c-.7 0-1.3-.6-1.3-1.3s.6-1.3 1.3-1.3h57.5c.7 0 1.3.6 1.3 1.3s-.6 1.3-1.3 1.3z"/><path class="st6" d="M711.4 285.5v123.3c0 .2 0 .3-.1.5 0 .1 0 .1-.1.2H709c0-.1-.1-.1-.1-.2-.1-.1-.1-.3-.1-.5V285.5c0-.3.1-.6.3-.8.2-.3.6-.5 1-.5s.7.2 1 .5c.2.2.3.5.3.8zM694.6 397.3c-.7 0-1.3-.6-1.3-1.3V285.5c0-.7.6-1.3 1.3-1.3s1.3.6 1.3 1.3V396c0 .7-.6 1.3-1.3 1.3zM681.3 397.3c-.7 0-1.3-.6-1.3-1.3V285.5c0-.7.6-1.3 1.3-1.3s1.3.6 1.3 1.3V396c.1.7-.5 1.3-1.3 1.3zM619.5 386.7h-6.6c-.7 0-1.3-.6-1.3-1.3s.6-1.3 1.3-1.3h5.3v-48.4h-5.3c-.7 0-1.3-.6-1.3-1.3s.6-1.3 1.3-1.3h6.6c.7 0 1.3.6 1.3 1.3v51c0 .7-.6 1.3-1.3 1.3zM648.2 386.7h-6.6c-.7 0-1.3-.6-1.3-1.3v-51c0-.7.6-1.3 1.3-1.3h6.6c.7 0 1.3.6 1.3 1.3s-.6 1.3-1.3 1.3h-5.3v48.4h5.3c.7 0 1.3.6 1.3 1.3s-.6 1.3-1.3 1.3z"/><path class="st6" d="M619.5 348.4h-6.6c-.7 0-1.3-.6-1.3-1.3s.6-1.3 1.3-1.3h6.6c.7 0 1.3.6 1.3 1.3s-.6 1.3-1.3 1.3zM648.2 348.4h-6.6c-.7 0-1.3-.6-1.3-1.3s.6-1.3 1.3-1.3h6.6c.7 0 1.3.6 1.3 1.3s-.6 1.3-1.3 1.3zM619.5 361.2h-6.6c-.7 0-1.3-.6-1.3-1.3s.6-1.3 1.3-1.3h6.6c.7 0 1.3.6 1.3 1.3s-.6 1.3-1.3 1.3zM648.2 361.2h-6.6c-.7 0-1.3-.6-1.3-1.3s.6-1.3 1.3-1.3h6.6c.7 0 1.3.6 1.3 1.3s-.6 1.3-1.3 1.3zM619.5 373.9h-6.6c-.7 0-1.3-.6-1.3-1.3s.6-1.3 1.3-1.3h6.6c.7 0 1.3.6 1.3 1.3s-.6 1.3-1.3 1.3zM648.2 373.9h-6.6c-.7 0-1.3-.6-1.3-1.3s.6-1.3 1.3-1.3h6.6c.7 0 1.3.6 1.3 1.3s-.6 1.3-1.3 1.3zM639.4 342h-17.7c-.7 0-1.3-.6-1.3-1.3s.6-1.3 1.3-1.3h17.7c.7 0 1.3.6 1.3 1.3s-.6 1.3-1.3 1.3zM639.4 354.8h-17.7c-.7 0-1.3-.6-1.3-1.3s.6-1.3 1.3-1.3h17.7c.7 0 1.3.6 1.3 1.3s-.6 1.3-1.3 1.3zM639.4 367.6h-17.7c-.7 0-1.3-.6-1.3-1.3s.6-1.3 1.3-1.3h17.7c.7 0 1.3.6 1.3 1.3s-.6 1.3-1.3 1.3zM639.4 380.3h-17.7c-.7 0-1.3-.6-1.3-1.3s.6-1.3 1.3-1.3h17.7c.7 0 1.3.6 1.3 1.3s-.6 1.3-1.3 1.3z"/></g><g><path class="st6" d="M47.8 339.6v69.8h-2.6v-69.8c0-.7.6-1.3 1.3-1.3.7 0 1.3.6 1.3 1.3z"/><path class="st6" d="M46.5 364.3c-14.1 0-25.6-11.1-25.6-24.7s11.5-24.7 25.6-24.7 25.6 11.1 25.6 24.7-11.5 24.7-25.6 24.7zm0-46.8c-12.7 0-23 9.9-23 22.1 0 12.2 10.3 22.1 23 22.1s23-9.9 23-22.1c0-12.2-10.3-22.1-23-22.1z"/><path class="st6" d="M46.5 352.6c-7.4 0-13.5-5.8-13.5-13 0-.7.6-1.3 1.3-1.3s1.3.6 1.3 1.3c0 5.7 4.9 10.4 10.9 10.4s10.9-4.7 10.9-10.4c0-.7.6-1.3 1.3-1.3s1.3.6 1.3 1.3c0 7.2-6.1 13-13.5 13zM46.3 404.8c-.4 0-.9-.2-1.1-.6l-14.4-23.9c-.4-.6-.2-1.4.5-1.8.6-.4 1.4-.2 1.8.5l14.4 23.9c.4.6.2 1.4-.5 1.8-.2.1-.5.1-.7.1z"/><path class="st6" d="M32 389c-3.4 0-6.6-1.7-8.4-4.7-1.3-2.1-1.6-4.7-1-7.1.7-2.5 2.3-4.5 4.6-5.8 4.6-2.6 10.6-1 13.2 3.4 1.3 2.1 1.7 4.7 1 7.1-.7 2.5-2.3 4.5-4.6 5.8-1.6.9-3.2 1.3-4.8 1.3zm-.1-16.2c-1.2 0-2.4.3-3.6.9-1.7.9-2.8 2.4-3.3 4.2-.5 1.7-.2 3.5.7 5.1 2 3.3 6.3 4.4 9.8 2.5 1.7-.9 2.8-2.4 3.3-4.2.5-1.7.2-3.5-.7-5.1-1.3-2.2-3.7-3.4-6.2-3.4z"/></g><g><path class="st6" d="M544.3 388.1h-11.6c-.7 0-1.3-.6-1.3-1.3v-7.4c0-.7.6-1.3 1.3-1.3h11.6c.7 0 1.3.6 1.3 1.3v7.4c0 .7-.5 1.3-1.3 1.3zm-10.2-2.6h9v-4.8h-9v4.8z"/><path class="st6" d="M553.4 372V409.4h-2.5v-.2-36h-24.4v36.2H524v-.2V372c0-.7.6-1.3 1.3-1.3h27c.5 0 1.1.6 1.1 1.3z"/><path class="st6" d="M554 404.8c-.7 0-1.3-.6-1.3-1.3s.6-1.3 1.3-1.3c1.4 0 2.5-1.1 2.5-2.4v-9.3c0-.7.6-1.3 1.3-1.3s1.3.6 1.3 1.3v9.3c0 2.7-2.3 5-5.1 5zM557.8 386.2c-.7 0-1.3-.6-1.3-1.3v-3.7c0-.7.6-1.3 1.3-1.3s1.3.6 1.3 1.3v3.7c0 .8-.6 1.3-1.3 1.3zM498.1 388.1h-11.6c-.7 0-1.3-.6-1.3-1.3v-7.4c0-.7.6-1.3 1.3-1.3h11.6c.7 0 1.3.6 1.3 1.3v7.4c0 .7-.6 1.3-1.3 1.3zm-10.3-2.6h9v-4.8h-9v4.8z"/><path class="st6" d="M507.1 372V409.4h-2.5v-.2-36h-24.4v36.2h-2.5v-.2V372c0-.7.6-1.3 1.3-1.3h27c.5 0 1.1.6 1.1 1.3z"/><path class="st6" d="M507.7 404.8c-.7 0-1.3-.6-1.3-1.3s.6-1.3 1.3-1.3c1.4 0 2.5-1.1 2.5-2.4v-9.3c0-.7.6-1.3 1.3-1.3s1.3.6 1.3 1.3v9.3c.1 2.7-2.2 5-5.1 5zM511.6 386.2c-.7 0-1.3-.6-1.3-1.3v-3.7c0-.7.6-1.3 1.3-1.3s1.3.6 1.3 1.3v3.7c0 .8-.6 1.3-1.3 1.3zM570.7 359V409.4h-2.5v-.2V359c0-.2 0-.4.1-.6.2-.4.7-.7 1.2-.7.3 0 .6.1.8.3.2.1.3.3.4.5v.5zM578.4 359V409.4h-2.5v-.2V359c0-.2 0-.4.1-.6.1-.2.2-.3.4-.5s.5-.3.8-.3c.5 0 1 .3 1.2.7v.7z"/><path class="st6" d="M586.7 358.4H471.1c-.7 0-1.3-.6-1.3-1.3s.6-1.3 1.3-1.3h114.3v-5c-.2.1-.4.2-.6.2H471.1c-.7 0-1.3-.6-1.3-1.3v-11.1c0-.7.6-1.3 1.3-1.3h115.6c.7 0 1.3.6 1.3 1.3v18.5c0 .8-.5 1.3-1.3 1.3zm-114.3-10h112.4c.2 0 .4.1.6.2v-8.7h-113v8.5z"/><path class="st6" d="M575.2 349.2c-.7 0-1.3-.6-1.3-1.3v-7.4c0-.7.6-1.3 1.3-1.3s1.3.6 1.3 1.3v7.4c0 .7-.6 1.3-1.3 1.3zM563.6 349.2c-.7 0-1.3-.6-1.3-1.3v-7.4c0-.7.6-1.3 1.3-1.3s1.3.6 1.3 1.3v7.4c0 .7-.6 1.3-1.3 1.3zM552 349.2c-.7 0-1.3-.6-1.3-1.3v-7.4c0-.7.6-1.3 1.3-1.3s1.3.6 1.3 1.3v7.4c0 .7-.5 1.3-1.3 1.3zM540.5 349.2c-.7 0-1.3-.6-1.3-1.3v-7.4c0-.7.6-1.3 1.3-1.3s1.3.6 1.3 1.3v7.4c0 .7-.6 1.3-1.3 1.3zM528.9 349.2c-.7 0-1.3-.6-1.3-1.3v-7.4c0-.7.6-1.3 1.3-1.3s1.3.6 1.3 1.3v7.4c0 .7-.6 1.3-1.3 1.3zM517.4 349.2c-.7 0-1.3-.6-1.3-1.3v-7.4c0-.7.6-1.3 1.3-1.3s1.3.6 1.3 1.3v7.4c0 .7-.6 1.3-1.3 1.3zM505.8 349.2c-.7 0-1.3-.6-1.3-1.3v-7.4c0-.7.6-1.3 1.3-1.3s1.3.6 1.3 1.3v7.4c0 .7-.6 1.3-1.3 1.3zM494.2 349.2c-.7 0-1.3-.6-1.3-1.3v-7.4c0-.7.6-1.3 1.3-1.3s1.3.6 1.3 1.3v7.4c0 .7-.5 1.3-1.3 1.3zM482.7 349.2c-.7 0-1.3-.6-1.3-1.3v-7.4c0-.7.6-1.3 1.3-1.3s1.3.6 1.3 1.3v7.4c0 .7-.6 1.3-1.3 1.3z"/></g><g><circle cx="528.1" cy="98.6" r="97.3" fill="#f9ab46"/><path class="st2" d="M528.1 197.2c-54.4 0-98.6-44.2-98.6-98.6S473.7 0 528.1 0s98.6 44.2 98.6 98.6-44.2 98.6-98.6 98.6zm0-194.5c-52.9 0-96 43-96 96s43 96 96 96c52.9 0 96-43.1 96-96s-43.1-96-96-96z"/><circle cx="528.1" cy="98.6" r="75.6" fill="#f9d846"/><path class="st2" d="M528.1 175.6c-42.5 0-77-34.5-77-77s34.5-77 77-77c42.4 0 77 34.5 77 77s-34.6 77-77 77zm0-151.3c-41 0-74.3 33.3-74.3 74.3s33.3 74.3 74.3 74.3 74.3-33.3 74.3-74.3-33.3-74.3-74.3-74.3z"/></g><g><path class="st2" d="M533.3 69.2H334.1c-.7 0-1.2-.5-1.2-1.2s.5-1.2 1.2-1.2h199.2c.7 0 1.2.5 1.2 1.2s-.5 1.2-1.2 1.2z"/><path class="st2" d="M533.3 69.7H334.1c-.9 0-1.7-.8-1.7-1.7s.8-1.7 1.7-1.7h199.2c.9 0 1.7.8 1.7 1.7s-.7 1.7-1.7 1.7zm-199.2-2.4c-.4 0-.7.3-.7.7s.3.7.7.7h199.2c.4 0 .7-.3.7-.7s-.3-.7-.7-.7H334.1zM640.2 16H535.6c-.7 0-1.2-.5-1.2-1.2s.5-1.2 1.2-1.2h104.6c.7 0 1.2.5 1.2 1.2s-.5 1.2-1.2 1.2z"/><path class="st2" d="M640.2 16.5H535.6c-.9 0-1.7-.8-1.7-1.7 0-.9.8-1.7 1.7-1.7h104.6c.9 0 1.7.8 1.7 1.7 0 1-.7 1.7-1.7 1.7zm-104.6-2.4c-.4 0-.7.3-.7.7 0 .4.3.7.7.7h104.6c.4 0 .7-.3.7-.7 0-.4-.3-.7-.7-.7H535.6z"/><g><path class="st2" d="M689.1 101.2H574.2c-.7 0-1.2-.5-1.2-1.2s.5-1.2 1.2-1.2h114.9c.7 0 1.2.5 1.2 1.2s-.6 1.2-1.2 1.2z"/><path class="st2" d="M689.1 101.7H574.2c-.9 0-1.7-.8-1.7-1.7 0-.9.8-1.7 1.7-1.7h114.9c.9 0 1.7.8 1.7 1.7 0 .9-.8 1.7-1.7 1.7zm-114.9-2.4c-.4 0-.7.3-.7.7 0 .4.3.7.7.7h114.9c.4 0 .7-.3.7-.7 0-.4-.3-.7-.7-.7H574.2z"/></g><g><path class="st2" d="M495.1 145.5h-94.5c-.7 0-1.2-.5-1.2-1.2s.5-1.2 1.2-1.2h94.5c.7 0 1.2.5 1.2 1.2s-.5 1.2-1.2 1.2z"/><path class="st2" d="M495.1 146h-94.5c-.9 0-1.7-.8-1.7-1.7 0-.9.8-1.7 1.7-1.7h94.5c.9 0 1.7.8 1.7 1.7 0 1-.7 1.7-1.7 1.7zm-94.5-2.4c-.4 0-.7.3-.7.7 0 .4.3.7.7.7h94.5c.4 0 .7-.3.7-.7 0-.4-.3-.7-.7-.7h-94.5z"/></g></g><g><path class="st2" d="M374.8 168h-34.9c-.7 0-1.2-.5-1.2-1.2s.5-1.2 1.2-1.2h34.9c.7 0 1.2.5 1.2 1.2s-.5 1.2-1.2 1.2z"/><path class="st2" d="M374.8 168.5h-34.9c-.9 0-1.7-.8-1.7-1.7 0-.9.8-1.7 1.7-1.7h34.9c.9 0 1.7.8 1.7 1.7 0 .9-.8 1.7-1.7 1.7zm-34.9-2.4c-.4 0-.7.3-.7.7 0 .4.3.7.7.7h34.9c.4 0 .7-.3.7-.7 0-.4-.3-.7-.7-.7h-34.9zM233.9 138.5H95c-1.3 0-2.3-.5-2.3-1.2s1-1.2 2.3-1.2h139c1.3 0 2.3.5 2.3 1.2-.1.7-1.1 1.2-2.4 1.2z"/><path class="st2" d="M233.9 139H95c-1.8 0-3.2-.8-3.2-1.7 0-.9 1.5-1.7 3.2-1.7h139c1.8 0 3.2.8 3.2 1.7 0 1-1.5 1.7-3.3 1.7zM95 136.6c-.7 0-1.3.3-1.3.7 0 .4.6.7 1.3.7h139c.7 0 1.3-.3 1.3-.7 0-.4-.6-.7-1.3-.7H95zM441.7 86.2h-34.9c-.7 0-1.2-.5-1.2-1.2s.5-1.2 1.2-1.2h34.9c.7 0 1.2.5 1.2 1.2-.1.6-.6 1.2-1.2 1.2z"/><path class="st2" d="M441.7 86.7h-34.9c-.9 0-1.7-.8-1.7-1.7 0-.9.8-1.7 1.7-1.7h34.9c.9 0 1.7.8 1.7 1.7-.1.9-.8 1.7-1.7 1.7zm-35-2.4c-.4 0-.7.3-.7.7 0 .4.3.7.7.7h34.9c.4 0 .7-.3.7-.7 0-.4-.3-.7-.7-.7h-34.9z"/><g><path class="st2" d="M327.3 216h-27.9c-.7 0-1.2-.5-1.2-1.2s.5-1.2 1.2-1.2h27.9c.7 0 1.2.5 1.2 1.2s-.5 1.2-1.2 1.2z"/><path class="st2" d="M327.3 216.5h-27.9c-.9 0-1.7-.8-1.7-1.7 0-.9.8-1.7 1.7-1.7h27.9c.9 0 1.7.8 1.7 1.7 0 .9-.8 1.7-1.7 1.7zm-27.9-2.4c-.4 0-.7.3-.7.7 0 .4.3.7.7.7h27.9c.4 0 .7-.3.7-.7 0-.4-.3-.7-.7-.7h-27.9z"/></g><g><path class="st2" d="M572.3 50h-27.9c-.7 0-1.2-.5-1.2-1.2s.5-1.2 1.2-1.2h27.9c.7 0 1.2.5 1.2 1.2s-.5 1.2-1.2 1.2z"/><path class="st2" d="M572.3 50.5h-27.9c-.9 0-1.7-.8-1.7-1.7 0-.9.8-1.7 1.7-1.7h27.9c.9 0 1.7.8 1.7 1.7 0 .9-.8 1.7-1.7 1.7zm-27.9-2.4c-.4 0-.7.3-.7.7 0 .4.3.7.7.7h27.9c.4 0 .7-.3.7-.7 0-.4-.3-.7-.7-.7h-27.9z"/></g><g><path class="st2" d="M255.6 35h-32.4c-.7 0-1.2-.5-1.2-1.2s.5-1.2 1.2-1.2h32.4c.7 0 1.2.5 1.2 1.2s-.5 1.2-1.2 1.2z"/><path class="st2" d="M255.6 35.5h-32.4c-.9 0-1.7-.8-1.7-1.7 0-.9.8-1.7 1.7-1.7h32.4c.9 0 1.7.8 1.7 1.7 0 1-.8 1.7-1.7 1.7zm-32.4-2.4c-.4 0-.7.3-.7.7 0 .4.3.7.7.7h32.4c.4 0 .7-.3.7-.7 0-.4-.3-.7-.7-.7h-32.4z"/></g></g></svg>